#N canvas 92 136 450 475 12;
#X floatatom 133 386 5 0 0 0 - - - 0;
#X obj 134 240 max;
#X floatatom 39 385 5 0 0 0 - - - 0;
#X obj 39 241 min;
#X obj 77 134 spigot;
#X obj 116 67 tgl 19 0 empty empty empty 0 -10 0 12 #fcfcfc #000000 #000000 0 1;
#X obj 38 32 inlet;
#X msg 321 217 0;
#X msg 227 217 100;
#X obj 277 165 bng 19 250 50 0 empty empty empty 0 -10 0 12 #fcfcfc #000000 #000000;
#X obj 318 118 loadbang;
#X obj 116 32 inlet;
#X obj 275 33 inlet;
#X obj 39 438 outlet;
#X obj 133 438 outlet;
#X text 23 8 signal;
#X text 111 8 reset min;
#X text 271 7 reset range;
#X text 43 417 min;
#X text 141 417 max;
#X obj 186 321 s \$0-gt;
#X obj 77 323 s \$0-lt;
#X obj 57 95 r \$0-lt;
#X obj 151 96 r \$0-gt;
#X connect 0 0 14 0;
#X connect 1 0 0 0;
#X connect 1 0 20 0;
#X connect 2 0 13 0;
#X connect 3 0 2 0;
#X connect 3 0 21 0;
#X connect 4 0 21 0;
#X connect 5 0 4 1;
#X connect 6 0 3 0;
#X connect 6 0 1 0;
#X connect 7 0 20 0;
#X connect 8 0 21 0;
#X connect 9 0 8 0;
#X connect 9 0 7 0;
#X connect 10 0 9 0;
#X connect 11 0 5 0;
#X connect 12 0 9 0;
#X connect 22 0 3 1;
#X connect 23 0 1 1;
#X connect 23 0 4 0;
