#N canvas 1017 213 661 526 12;
#X obj 80 52 abs;
#X obj 80 116 pow 0.25;
#X obj 80 149 / 2;
#X obj 80 184 * 127;
#X obj 80 217 min 127;
#X obj 227 478 ctlout 26 1, f 13;
#X floatatom 49 339 10 0 0 0 - - - 0;
#X obj 80 290 line;
#X text 151 116 calm the excess;
#X text 114 149 result rarely over 2 in tests;
#X text 140 181 to MIDI CC range;
#X text 152 217 safety;
#X text 148 289 slew;
#X obj 226 372 spigot;
#X obj 378 293 tgl 19 0 empty empty empty 0 -10 0 12 #fcfcfc #000000 #000000 0 1;
#X text 44 407 Gonna need these Spigots do MIDI assigns in Ableton;
#X obj 80 16 inlet;
#X obj 133 16 inlet;
#X floatatom 92 261 5 0 0 0 - - - 0;
#X obj 203 15 inlet;
#X obj 271 15 inlet;
#X obj 315 15 inlet;
#X obj 379 15 inlet;
#X obj 161 478 outlet;
#X obj 156 69 f \$1;
#X obj 464 15 loadbang;
#X obj 216 69 f \$2;
#X floatatom 205 222 5 0 0 0 - - - 0;
#X obj 276 69 i \$3;
#X obj 336 69 i \$4;
#X connect 0 0 1 0;
#X connect 1 0 2 0;
#X connect 2 0 3 0;
#X connect 3 0 4 0;
#X connect 4 0 7 0;
#X connect 4 0 18 0;
#X connect 7 0 6 0;
#X connect 7 0 13 0;
#X connect 13 0 5 0;
#X connect 13 0 23 0;
#X connect 14 0 13 1;
#X connect 16 0 0 0;
#X connect 17 0 1 1;
#X connect 18 0 7 1;
#X connect 19 0 27 0;
#X connect 20 0 5 1;
#X connect 21 0 5 2;
#X connect 22 0 14 0;
#X connect 24 0 1 1;
#X connect 25 0 26 0;
#X connect 25 0 24 0;
#X connect 25 0 28 0;
#X connect 25 0 29 0;
#X connect 26 0 27 0;
#X connect 27 0 18 0;
#X connect 28 0 5 1;
#X connect 29 0 5 2;
