#N canvas 86 516 639 583 12;
#X obj 251 480 noteout, f 13;
#X floatatom 535 428 5 0 0 0 - - - 0;
#X text 222 504 note \, velocity \, duration;
#X floatatom 295 413 5 0 0 0 - - - 0;
#X obj 364 325 min 127;
#X obj 364 355 max 0;
#X obj 364 183 expr 127-$f1;
#X obj 47 96 sig~;
#X obj 47 173 bng 19 250 50 0 empty empty empty 0 -10 0 12 #fcfcfc #000000 #000000;
#X obj 211 179 bng 19 250 50 0 empty empty empty 0 -10 0 12 #fcfcfc #000000 #000000;
#X obj 47 130 threshold~ 25 125 16 125;
#X obj 47 56 inlet;
#X obj 109 56 inlet;
#X text 46 37 value;
#X text 152 55 trigger settings;
#X obj 342 62 inlet;
#X text 348 43 note;
#X floatatom 251 412 5 0 0 0 - - - 0;
#X obj 535 66 inlet;
#X text 535 44 Channel;
#X obj 306 17 loadbang;
#X text 1310 550 This allows for debouncing to prevent multi-taps;
#X text 1320 560 This allows for debouncing to prevent multi-taps;
#X obj 60 542 outlet;
#X obj 124 542 outlet;
#X msg 210 413 0;
#X text 54 151 allows debounce to prevent multitaps;
#X obj 305 62 i \$1;
#X obj 184 542 outlet;
#X obj 364 157 * 3;
#X connect 1 0 0 2;
#X connect 3 0 0 1;
#X connect 3 0 24 0;
#X connect 4 0 5 0;
#X connect 5 0 3 0;
#X connect 6 0 4 0;
#X connect 7 0 10 0;
#X connect 8 0 25 0;
#X connect 8 0 17 0;
#X connect 8 0 28 0;
#X connect 9 0 3 0;
#X connect 9 0 17 0;
#X connect 9 0 23 0;
#X connect 10 0 8 0;
#X connect 10 1 9 0;
#X connect 11 0 7 0;
#X connect 11 0 29 0;
#X connect 12 0 10 0;
#X connect 15 0 17 0;
#X connect 17 0 0 0;
#X connect 18 0 1 0;
#X connect 20 0 27 0;
#X connect 25 0 0 1;
#X connect 27 0 17 0;
#X connect 29 0 6 0;
