#N canvas 0 25 1440 789 12;
#X obj 146 81 netreceive -u -b;
#X obj 147 114 oscparse;
#X msg 253 31 listen 0;
#X obj 146 149 list trim;
#X obj 143 243 route esp;
#X obj 280 300 route touch;
#X floatatom 372 436 5 0 0 0 - - -, f 5;
#X msg 143 32 listen 8088;
#X floatatom 437 435 5 0 0 0 - - -, f 5;
#X obj 1469 748 tgl 15 0 empty empty empty 17 7 0 10 #fcfcfc #000000
#000000 0 1;
#X obj 145 298 route motion;
#X text 105 395 id;
#X obj 1469 724 change;
#X obj 1469 770 moses 1;
#X obj 1465 801 bng 15 250 50 0 empty empty empty 17 7 0 10 #fcfcfc
#000000 #000000;
#X obj 1512 793 bng 15 250 50 0 empty empty empty 17 7 0 10 #fcfcfc
#000000 #000000;
#X obj 1511 984 noteout;
#X floatatom 1512 927 5 0 0 0 - - -, f 5;
#X floatatom 1551 927 5 0 0 0 - - -, f 5;
#X floatatom 1591 927 5 0 0 0 - - -, f 5;
#X obj 1512 885 makenote;
#X text 1631 815 note duration;
#X obj 1471 689 < 24;
#X text 1637 929 note \, velocity \, duration;
#X obj 1591 896 r touchDeviceId;
#X msg 1630 843 20;
#X msg 1512 844 60;
#X floatatom 506 440 5 0 0 0 - - -, f 5;
#X floatatom 562 437 5 0 0 0 - - -, f 5;
#X floatatom 633 431 5 0 0 0 - - -, f 5;
#X floatatom 693 432 5 0 0 0 - - -, f 5;
#X floatatom 766 432 5 0 0 0 - - -, f 5;
#X floatatom 831 433 5 0 0 0 - - -, f 5;
#X floatatom 895 432 5 0 0 0 - - -, f 5;
#X obj 373 464 s touch0;
#X obj 438 464 s touch1;
#X obj 506 467 s touch2;
#X obj 563 465 s touch3;
#X obj 633 462 s touch4;
#X obj 692 458 s touch5;
#X obj 768 458 s touch6;
#X obj 835 459 s touch7;
#X obj 903 460 s touch8;
#X obj 1542 643 r touchThreshold;
#X floatatom 1232 80 5 0 0 0 - - -, f 5;
#X obj 1233 106 s touchThreshold;
#X obj 1552 725 r touch0;
#X obj 1471 644 r touch0;
#X obj 1232 19 loadbang;
#X msg 1232 50 24;
#X obj 279 351 unpack i f f f f f f f f f;
#X floatatom 279 394 5 0 0 0 - - -, f 5;
#X text 241 396 id;
#X obj 233 446 s touchDeviceId;
#X floatatom 1554 847 5 0 0 0 - - -, f 5;
#X obj 1887 745 tgl 15 0 empty empty empty 17 7 0 10 #fcfcfc #000000
#000000 0 1;
#X obj 1887 721 change;
#X obj 1887 767 moses 1;
#X obj 1883 798 bng 15 250 50 0 empty empty empty 17 7 0 10 #fcfcfc
#000000 #000000;
#X obj 1930 790 bng 15 250 50 0 empty empty empty 17 7 0 10 #fcfcfc
#000000 #000000;
#X obj 1929 981 noteout;
#X floatatom 1930 924 5 0 0 0 - - -, f 5;
#X floatatom 1969 924 5 0 0 0 - - -, f 5;
#X floatatom 2009 924 5 0 0 0 - - -, f 5;
#X obj 1930 882 makenote;
#X text 2049 812 note duration;
#X obj 1889 686 < 24;
#X text 2055 926 note \, velocity \, duration;
#X obj 2009 893 r touchDeviceId;
#X msg 2048 840 20;
#X obj 1960 640 r touchThreshold;
#X floatatom 1972 844 5 0 0 0 - - -, f 5;
#X obj 1889 641 r touch1;
#X msg 1930 841 61;
#X obj 2278 757 tgl 15 0 empty empty empty 17 7 0 10 #fcfcfc #000000
#000000 0 1;
#X obj 2278 733 change;
#X obj 2278 779 moses 1;
#X obj 2274 810 bng 15 250 50 0 empty empty empty 17 7 0 10 #fcfcfc
#000000 #000000;
#X obj 2321 802 bng 15 250 50 0 empty empty empty 17 7 0 10 #fcfcfc
#000000 #000000;
#X obj 2320 993 noteout;
#X floatatom 2321 936 5 0 0 0 - - -, f 5;
#X floatatom 2360 936 5 0 0 0 - - -, f 5;
#X floatatom 2400 936 5 0 0 0 - - -, f 5;
#X obj 2321 894 makenote;
#X text 2440 824 note duration;
#X obj 2280 698 < 24;
#X text 2446 938 note \, velocity \, duration;
#X obj 2400 905 r touchDeviceId;
#X msg 2439 852 20;
#X obj 2351 652 r touchThreshold;
#X floatatom 2363 856 5 0 0 0 - - -, f 5;
#X msg 2321 853 62;
#X obj 2280 653 r touch2;
#X obj 2606 760 tgl 15 0 empty empty empty 17 7 0 10 #fcfcfc #000000
#000000 0 1;
#X obj 2606 736 change;
#X obj 2606 782 moses 1;
#X obj 2602 813 bng 15 250 50 0 empty empty empty 17 7 0 10 #fcfcfc
#000000 #000000;
#X obj 2649 805 bng 15 250 50 0 empty empty empty 17 7 0 10 #fcfcfc
#000000 #000000;
#X obj 2648 996 noteout;
#X floatatom 2649 939 5 0 0 0 - - -, f 5;
#X floatatom 2688 939 5 0 0 0 - - -, f 5;
#X floatatom 2728 939 5 0 0 0 - - -, f 5;
#X obj 2649 897 makenote;
#X text 2768 827 note duration;
#X obj 2608 701 < 24;
#X text 2774 941 note \, velocity \, duration;
#X obj 2728 908 r touchDeviceId;
#X msg 2767 855 20;
#X obj 2679 655 r touchThreshold;
#X floatatom 2691 859 5 0 0 0 - - -, f 5;
#X obj 2608 656 r touch3;
#X msg 2649 856 63;
#X obj 2967 765 tgl 15 0 empty empty empty 17 7 0 10 #fcfcfc #000000
#000000 0 1;
#X obj 2967 741 change;
#X obj 2967 787 moses 1;
#X obj 2963 818 bng 15 250 50 0 empty empty empty 17 7 0 10 #fcfcfc
#000000 #000000;
#X obj 3010 810 bng 15 250 50 0 empty empty empty 17 7 0 10 #fcfcfc
#000000 #000000;
#X obj 3009 1001 noteout;
#X floatatom 3010 944 5 0 0 0 - - -, f 5;
#X floatatom 3049 944 5 0 0 0 - - -, f 5;
#X floatatom 3089 944 5 0 0 0 - - -, f 5;
#X obj 3010 902 makenote;
#X text 3129 832 note duration;
#X obj 2969 706 < 24;
#X text 3144 944 note \, velocity \, duration;
#X obj 3089 913 r touchDeviceId;
#X msg 3128 860 20;
#X obj 3040 660 r touchThreshold;
#X floatatom 3052 864 5 0 0 0 - - -, f 5;
#X obj 2969 661 r touch4;
#X msg 3010 861 64;
#X obj 3347 765 tgl 15 0 empty empty empty 17 7 0 10 #fcfcfc #000000
#000000 0 1;
#X obj 3347 741 change;
#X obj 3347 787 moses 1;
#X obj 3343 818 bng 15 250 50 0 empty empty empty 17 7 0 10 #fcfcfc
#000000 #000000;
#X obj 3390 810 bng 15 250 50 0 empty empty empty 17 7 0 10 #fcfcfc
#000000 #000000;
#X obj 3389 1001 noteout;
#X floatatom 3390 944 5 0 0 0 - - -, f 5;
#X floatatom 3429 944 5 0 0 0 - - -, f 5;
#X floatatom 3469 944 5 0 0 0 - - -, f 5;
#X obj 3390 902 makenote;
#X text 3509 832 note duration;
#X obj 3349 706 < 24;
#X text 3515 946 note \, velocity \, duration;
#X obj 3469 913 r touchDeviceId;
#X msg 3508 860 20;
#X obj 3420 660 r touchThreshold;
#X floatatom 3432 864 5 0 0 0 - - -, f 5;
#X obj 3349 661 r touch5;
#X msg 3390 861 65;
#X obj 3663 764 tgl 15 0 empty empty empty 17 7 0 10 #fcfcfc #000000
#000000 0 1;
#X obj 3663 740 change;
#X obj 3663 786 moses 1;
#X obj 3659 817 bng 15 250 50 0 empty empty empty 17 7 0 10 #fcfcfc
#000000 #000000;
#X obj 3706 809 bng 15 250 50 0 empty empty empty 17 7 0 10 #fcfcfc
#000000 #000000;
#X obj 3705 1000 noteout;
#X floatatom 3706 943 5 0 0 0 - - -, f 5;
#X floatatom 3745 943 5 0 0 0 - - -, f 5;
#X floatatom 3785 943 5 0 0 0 - - -, f 5;
#X obj 3706 901 makenote;
#X text 3825 831 note duration;
#X obj 3665 705 < 24;
#X text 3831 945 note \, velocity \, duration;
#X obj 3785 912 r touchDeviceId;
#X msg 3824 859 20;
#X obj 3736 659 r touchThreshold;
#X floatatom 3748 863 5 0 0 0 - - -, f 5;
#X obj 3665 660 r touch6;
#X msg 3706 860 66;
#X obj 3983 763 tgl 15 0 empty empty empty 17 7 0 10 #fcfcfc #000000
#000000 0 1;
#X obj 3983 739 change;
#X obj 3983 785 moses 1;
#X obj 3979 816 bng 15 250 50 0 empty empty empty 17 7 0 10 #fcfcfc
#000000 #000000;
#X obj 4026 808 bng 15 250 50 0 empty empty empty 17 7 0 10 #fcfcfc
#000000 #000000;
#X obj 4025 999 noteout;
#X floatatom 4026 942 5 0 0 0 - - -, f 5;
#X floatatom 4065 942 5 0 0 0 - - -, f 5;
#X floatatom 4105 942 5 0 0 0 - - -, f 5;
#X obj 4026 900 makenote;
#X text 4145 830 note duration;
#X obj 3985 704 < 24;
#X text 4151 944 note \, velocity \, duration;
#X obj 4105 911 r touchDeviceId;
#X msg 4144 858 20;
#X obj 4056 658 r touchThreshold;
#X floatatom 4068 862 5 0 0 0 - - -, f 5;
#X text 3835 945 comment;
#X obj 3985 659 r touch7;
#X msg 4026 859 67;
#X obj 4324 760 tgl 15 0 empty empty empty 17 7 0 10 #fcfcfc #000000
#000000 0 1;
#X obj 4324 736 change;
#X obj 4324 782 moses 1;
#X obj 4320 813 bng 15 250 50 0 empty empty empty 17 7 0 10 #fcfcfc
#000000 #000000;
#X obj 4367 805 bng 15 250 50 0 empty empty empty 17 7 0 10 #fcfcfc
#000000 #000000;
#X obj 4366 996 noteout;
#X floatatom 4367 939 5 0 0 0 - - -, f 5;
#X floatatom 4406 939 5 0 0 0 - - -, f 5;
#X floatatom 4446 939 5 0 0 0 - - -, f 5;
#X obj 4367 897 makenote;
#X text 4486 827 note duration;
#X obj 4326 701 < 24;
#X text 4492 941 note \, velocity \, duration;
#X obj 4446 908 r touchDeviceId;
#X msg 4485 855 20;
#X obj 4397 655 r touchThreshold;
#X floatatom 4409 859 5 0 0 0 - - -, f 5;
#X obj 4326 656 r touch8;
#X msg 4367 856 68;
#X obj 1552 785 min 127;
#X obj 1552 815 max 0;
#X obj 1552 755 expr 127-$f1;
#X obj 1972 785 min 127;
#X obj 1972 815 max 0;
#X obj 1972 755 expr 127-$f1;
#X obj 1972 725 r touch1;
#X obj 2367 797 min 127;
#X obj 2367 827 max 0;
#X obj 2367 767 expr 127-$f1;
#X obj 2367 737 r touch2;
#X obj 2687 797 min 127;
#X obj 2687 827 max 0;
#X obj 2687 767 expr 127-$f1;
#X obj 2687 737 r touch3;
#X obj 3047 797 min 127;
#X obj 3047 827 max 0;
#X obj 3047 767 expr 127-$f1;
#X obj 3047 737 r touch4;
#X obj 3433 794 min 127;
#X obj 3433 824 max 0;
#X obj 3433 764 expr 127-$f1;
#X obj 3433 734 r touch5;
#X obj 3753 804 min 127;
#X obj 3753 834 max 0;
#X obj 3753 774 expr 127-$f1;
#X obj 3753 744 r touch6;
#X obj 4063 794 min 127;
#X obj 4063 824 max 0;
#X obj 4063 764 expr 127-$f1;
#X obj 4063 734 r touch7;
#X obj 4403 794 min 127;
#X obj 4403 824 max 0;
#X obj 4403 764 expr 127-$f1;
#X obj 4403 734 r touch8;
#X floatatom 161 1010 5 0 0 0 - - -, f 5;
#X text 145 654 id;
#X floatatom 257 675 5 0 0 0 - - -, f 5;
#X text 204 653 gyro.x;
#X floatatom 345 673 5 0 0 0 - - -, f 5;
#X floatatom 437 673 5 0 0 0 - - -, f 5;
#X text 293 652 gyro.y;
#X text 385 651 gyro.z;
#X obj 160 630 unpack i f f f f f f, f 77;
#X floatatom 529 675 5 0 0 0 - - -, f 5;
#X floatatom 620 672 5 0 0 0 - - -, f 5;
#X floatatom 711 674 5 0 0 0 - - -, f 5;
#X text 467 651 accel.x;
#X text 556 650 accel.y;
#X text 646 649 accel.z;
#X obj 698 699 abs;
#X obj 698 733 pow 0.25;
#X obj 698 766 / 2;
#X obj 698 801 * 127;
#X obj 698 834 min 127;
#X obj 428 699 abs;
#X obj 428 766 / 2;
#X obj 428 801 * 127;
#X obj 428 834 min 127;
#X obj 428 733 pow 0.33;
#X obj 608 699 abs;
#X obj 608 733 pow 0.25;
#X obj 608 766 / 2;
#X obj 608 801 * 127;
#X obj 608 834 min 127;
#X obj 338 699 abs;
#X obj 338 766 / 2;
#X obj 338 801 * 127;
#X obj 338 834 min 127;
#X obj 338 733 pow 0.33;
#X obj 518 699 abs;
#X obj 518 733 pow 0.25;
#X obj 518 766 / 2;
#X obj 518 801 * 127;
#X obj 518 834 min 127;
#X obj 248 699 abs;
#X obj 248 766 / 2;
#X obj 248 801 * 127;
#X obj 248 834 min 127;
#X obj 248 733 pow 0.33;
#X obj 248 1087 ctlout 21 1;
#X obj 338 1087 ctlout 22 1;
#X obj 428 1087 ctlout 23 1;
#X obj 518 1087 ctlout 24 1;
#X obj 608 1087 ctlout 25 1;
#X obj 698 1087 ctlout 26 1;
#X floatatom 704 921 10 0 0 0 - - -, f 10;
#X obj 698 887 line;
#X msg 710 860 250;
#X floatatom 618 921 10 0 0 0 - - -, f 10;
#X obj 608 887 line;
#X msg 620 860 250;
#X floatatom 528 921 10 0 0 0 - - -, f 10;
#X obj 518 887 line;
#X msg 530 860 250;
#X floatatom 438 921 10 0 0 0 - - -, f 10;
#X obj 428 887 line;
#X msg 440 860 250;
#X floatatom 348 921 10 0 0 0 - - -, f 10;
#X obj 338 887 line;
#X msg 350 860 250;
#X floatatom 258 921 10 0 0 0 - - -, f 10;
#X obj 248 887 line;
#X msg 260 860 250;
#X text 764 677 lazy sigmoid-ish normalizing;
#X text 769 733 calm the excess;
#X text 732 766 result rarely over 2 in tests;
#X text 758 798 to MIDI CC range;
#X text 770 834 safety;
#X text 766 886 slew;
#X text 329 1126 the CC addresses were chosen from less assigned ranged
;
#X obj 699 995 spigot;
#X obj 753 969 tgl 19 0 empty empty empty 0 -10 0 12 #fcfcfc #000000
#000000 0 1;
#X obj 249 995 spigot;
#X obj 303 969 tgl 19 0 empty empty empty 0 -10 0 12 #fcfcfc #000000
#000000 0 1;
#X obj 339 995 spigot;
#X obj 393 969 tgl 19 0 empty empty empty 0 -10 0 12 #fcfcfc #000000
#000000 0 1;
#X obj 429 995 spigot;
#X obj 483 969 tgl 19 0 empty empty empty 0 -10 0 12 #fcfcfc #000000
#000000 0 1;
#X obj 519 995 spigot;
#X obj 572 969 tgl 19 0 empty empty empty 0 -10 0 12 #fcfcfc #000000
#000000 0 1;
#X obj 609 995 spigot;
#X obj 663 969 tgl 19 0 empty empty empty 0 -10 0 12 #fcfcfc #000000
#000000 0 1;
#X text 474 611 send midi CCs for gyro + accel;
#X connect 0 0 1 0;
#X connect 1 0 3 0;
#X connect 2 0 0 0;
#X connect 3 0 4 0;
#X connect 4 0 10 0;
#X connect 4 0 5 0;
#X connect 5 0 50 0;
#X connect 6 0 34 0;
#X connect 7 0 0 0;
#X connect 8 0 35 0;
#X connect 9 0 13 0;
#X connect 10 0 251 0;
#X connect 12 0 9 0;
#X connect 13 0 14 0;
#X connect 13 1 15 0;
#X connect 15 0 26 0;
#X connect 17 0 16 0;
#X connect 18 0 16 1;
#X connect 19 0 16 2;
#X connect 20 0 17 0;
#X connect 20 1 18 0;
#X connect 22 0 12 0;
#X connect 24 0 19 0;
#X connect 25 0 20 2;
#X connect 26 0 20 0;
#X connect 27 0 36 0;
#X connect 28 0 37 0;
#X connect 29 0 38 0;
#X connect 30 0 39 0;
#X connect 31 0 40 0;
#X connect 32 0 41 0;
#X connect 33 0 42 0;
#X connect 43 0 22 1;
#X connect 44 0 45 0;
#X connect 46 0 210 0;
#X connect 47 0 22 0;
#X connect 48 0 49 0;
#X connect 49 0 44 0;
#X connect 50 0 51 0;
#X connect 50 1 6 0;
#X connect 50 2 8 0;
#X connect 50 3 27 0;
#X connect 50 4 28 0;
#X connect 50 5 29 0;
#X connect 50 6 30 0;
#X connect 50 7 31 0;
#X connect 50 8 32 0;
#X connect 50 9 33 0;
#X connect 51 0 53 0;
#X connect 54 0 20 1;
#X connect 55 0 57 0;
#X connect 56 0 55 0;
#X connect 57 0 58 0;
#X connect 57 1 59 0;
#X connect 59 0 73 0;
#X connect 61 0 60 0;
#X connect 62 0 60 1;
#X connect 63 0 60 2;
#X connect 64 0 61 0;
#X connect 64 1 62 0;
#X connect 66 0 56 0;
#X connect 68 0 63 0;
#X connect 69 0 64 2;
#X connect 70 0 66 1;
#X connect 71 0 64 1;
#X connect 72 0 66 0;
#X connect 73 0 64 0;
#X connect 74 0 76 0;
#X connect 75 0 74 0;
#X connect 76 0 77 0;
#X connect 76 1 78 0;
#X connect 78 0 91 0;
#X connect 80 0 79 0;
#X connect 81 0 79 1;
#X connect 82 0 79 2;
#X connect 83 0 80 0;
#X connect 83 1 81 0;
#X connect 85 0 75 0;
#X connect 87 0 82 0;
#X connect 88 0 83 2;
#X connect 89 0 85 1;
#X connect 90 0 83 1;
#X connect 91 0 83 0;
#X connect 92 0 85 0;
#X connect 93 0 95 0;
#X connect 94 0 93 0;
#X connect 95 0 96 0;
#X connect 95 1 97 0;
#X connect 97 0 111 0;
#X connect 99 0 98 0;
#X connect 100 0 98 1;
#X connect 101 0 98 2;
#X connect 102 0 99 0;
#X connect 102 1 100 0;
#X connect 104 0 94 0;
#X connect 106 0 101 0;
#X connect 107 0 102 2;
#X connect 108 0 104 1;
#X connect 109 0 102 1;
#X connect 110 0 104 0;
#X connect 111 0 102 0;
#X connect 112 0 114 0;
#X connect 113 0 112 0;
#X connect 114 0 115 0;
#X connect 114 1 116 0;
#X connect 116 0 130 0;
#X connect 118 0 117 0;
#X connect 119 0 117 1;
#X connect 120 0 117 2;
#X connect 121 0 118 0;
#X connect 121 1 119 0;
#X connect 123 0 113 0;
#X connect 125 0 120 0;
#X connect 126 0 121 2;
#X connect 127 0 123 1;
#X connect 128 0 121 1;
#X connect 129 0 123 0;
#X connect 130 0 121 0;
#X connect 131 0 133 0;
#X connect 132 0 131 0;
#X connect 133 0 134 0;
#X connect 133 1 135 0;
#X connect 135 0 149 0;
#X connect 137 0 136 0;
#X connect 138 0 136 1;
#X connect 139 0 136 2;
#X connect 140 0 137 0;
#X connect 140 1 138 0;
#X connect 142 0 132 0;
#X connect 144 0 139 0;
#X connect 145 0 140 2;
#X connect 146 0 142 1;
#X connect 147 0 140 1;
#X connect 148 0 142 0;
#X connect 149 0 140 0;
#X connect 150 0 152 0;
#X connect 151 0 150 0;
#X connect 152 0 153 0;
#X connect 152 1 154 0;
#X connect 154 0 168 0;
#X connect 156 0 155 0;
#X connect 157 0 155 1;
#X connect 158 0 155 2;
#X connect 159 0 156 0;
#X connect 159 1 157 0;
#X connect 161 0 151 0;
#X connect 163 0 158 0;
#X connect 164 0 159 2;
#X connect 165 0 161 1;
#X connect 166 0 159 1;
#X connect 167 0 161 0;
#X connect 168 0 159 0;
#X connect 169 0 171 0;
#X connect 170 0 169 0;
#X connect 171 0 172 0;
#X connect 171 1 173 0;
#X connect 173 0 188 0;
#X connect 175 0 174 0;
#X connect 176 0 174 1;
#X connect 177 0 174 2;
#X connect 178 0 175 0;
#X connect 178 1 176 0;
#X connect 180 0 170 0;
#X connect 182 0 177 0;
#X connect 183 0 178 2;
#X connect 184 0 180 1;
#X connect 185 0 178 1;
#X connect 187 0 180 0;
#X connect 188 0 178 0;
#X connect 189 0 191 0;
#X connect 190 0 189 0;
#X connect 191 0 192 0;
#X connect 191 1 193 0;
#X connect 193 0 207 0;
#X connect 195 0 194 0;
#X connect 196 0 194 1;
#X connect 197 0 194 2;
#X connect 198 0 195 0;
#X connect 198 1 196 0;
#X connect 200 0 190 0;
#X connect 202 0 197 0;
#X connect 203 0 198 2;
#X connect 204 0 200 1;
#X connect 205 0 198 1;
#X connect 206 0 200 0;
#X connect 207 0 198 0;
#X connect 208 0 209 0;
#X connect 209 0 54 0;
#X connect 210 0 208 0;
#X connect 211 0 212 0;
#X connect 211 0 71 0;
#X connect 212 0 71 0;
#X connect 213 0 211 0;
#X connect 213 0 71 0;
#X connect 214 0 213 0;
#X connect 214 0 71 0;
#X connect 215 0 216 0;
#X connect 216 0 90 0;
#X connect 217 0 215 0;
#X connect 218 0 217 0;
#X connect 219 0 220 0;
#X connect 220 0 109 0;
#X connect 221 0 219 0;
#X connect 222 0 221 0;
#X connect 223 0 224 0;
#X connect 224 0 128 0;
#X connect 225 0 223 0;
#X connect 226 0 225 0;
#X connect 227 0 228 0;
#X connect 228 0 147 0;
#X connect 229 0 227 0;
#X connect 230 0 229 0;
#X connect 231 0 232 0;
#X connect 232 0 166 0;
#X connect 233 0 231 0;
#X connect 234 0 233 0;
#X connect 235 0 236 0;
#X connect 236 0 185 0;
#X connect 237 0 235 0;
#X connect 238 0 237 0;
#X connect 239 0 240 0;
#X connect 240 0 205 0;
#X connect 241 0 239 0;
#X connect 242 0 241 0;
#X connect 243 0 288 2;
#X connect 243 0 289 2;
#X connect 243 0 290 2;
#X connect 243 0 291 2;
#X connect 243 0 292 2;
#X connect 243 0 293 2;
#X connect 251 0 243 0;
#X connect 251 1 245 0;
#X connect 251 1 283 0;
#X connect 251 2 247 0;
#X connect 251 2 273 0;
#X connect 251 3 248 0;
#X connect 251 3 263 0;
#X connect 251 4 252 0;
#X connect 251 4 278 0;
#X connect 251 5 253 0;
#X connect 251 5 268 0;
#X connect 251 6 254 0;
#X connect 251 6 258 0;
#X connect 258 0 259 0;
#X connect 259 0 260 0;
#X connect 260 0 261 0;
#X connect 261 0 262 0;
#X connect 262 0 296 0;
#X connect 262 0 295 0;
#X connect 263 0 267 0;
#X connect 264 0 265 0;
#X connect 265 0 266 0;
#X connect 266 0 304 0;
#X connect 267 0 264 0;
#X connect 268 0 269 0;
#X connect 269 0 270 0;
#X connect 270 0 271 0;
#X connect 271 0 272 0;
#X connect 272 0 298 0;
#X connect 273 0 277 0;
#X connect 274 0 275 0;
#X connect 275 0 276 0;
#X connect 276 0 307 0;
#X connect 277 0 274 0;
#X connect 278 0 279 0;
#X connect 279 0 280 0;
#X connect 280 0 281 0;
#X connect 281 0 282 0;
#X connect 282 0 301 0;
#X connect 283 0 287 0;
#X connect 284 0 285 0;
#X connect 285 0 286 0;
#X connect 286 0 310 0;
#X connect 287 0 284 0;
#X connect 295 0 294 0;
#X connect 295 0 319 0;
#X connect 296 0 295 1;
#X connect 298 0 297 0;
#X connect 298 0 329 0;
#X connect 299 0 298 1;
#X connect 301 0 300 0;
#X connect 301 0 327 0;
#X connect 302 0 301 1;
#X connect 304 0 303 0;
#X connect 304 0 325 0;
#X connect 305 0 304 1;
#X connect 307 0 306 0;
#X connect 307 0 323 0;
#X connect 308 0 307 1;
#X connect 310 0 309 0;
#X connect 310 0 321 0;
#X connect 311 0 310 1;
#X connect 319 0 293 0;
#X connect 320 0 319 1;
#X connect 321 0 288 0;
#X connect 322 0 321 1;
#X connect 323 0 289 0;
#X connect 324 0 323 1;
#X connect 325 0 290 0;
#X connect 326 0 325 1;
#X connect 327 0 291 0;
#X connect 328 0 327 1;
#X connect 329 0 292 0;
#X connect 330 0 329 1;
