#N canvas 27 44 1773 1058 12;
#X obj 30 101 netreceive -u -b;
#X obj 30 134 oscparse;
#X msg 127 52 listen 0;
#X obj 30 169 list trim;
#X obj 30 203 route esp;
#X obj 89 240 route touch;
#X floatatom 157 329 5 0 0 0 - - - 0;
#X msg 30 52 listen 8088;
#X floatatom 226 330 5 0 0 0 - - - 0;
#X obj 30 488 route motion;
#X obj 919 587 r touchDeviceId;
#X floatatom 295 330 5 0 0 0 - - - 0;
#X floatatom 364 330 5 0 0 0 - - - 0;
#X floatatom 433 331 5 0 0 0 - - - 0;
#X floatatom 502 330 5 0 0 0 - - - 0;
#X floatatom 571 330 5 0 0 0 - - - 0;
#X floatatom 640 330 5 0 0 0 - - - 0;
#X floatatom 709 330 5 0 0 0 - - - 0;
#X obj 157 384 s touch0;
#X obj 226 385 s touch1;
#X obj 295 385 s touch2;
#X obj 364 385 s touch3;
#X obj 433 385 s touch4;
#X obj 502 385 s touch5;
#X obj 571 385 s touch6;
#X obj 641 385 s touch7;
#X obj 709 385 s touch8;
#X obj 810 525 r touch0;
#X obj 89 291 unpack i f f f f f f f f f, f 89;
#X floatatom 89 327 5 0 0 0 - - - 0;
#X text 67 327 id;
#X obj 89 410 s touchDeviceId;
#X floatatom 357 635 5 0 0 0 - - - 0;
#X text 15 554 id;
#X floatatom 119 575 5 0 0 0 - - - 0;
#X text 74 553 gyro.x;
#X floatatom 208 573 5 0 0 0 - - - 0;
#X floatatom 298 573 5 0 0 0 - - - 0;
#X text 163 552 gyro.y;
#X text 255 551 gyro.z;
#X obj 30 530 unpack i f f f f f f, f 77;
#X floatatom 387 575 5 0 0 0 - - - 0;
#X floatatom 476 572 5 0 0 0 - - - 0;
#X floatatom 566 574 5 0 0 0 - - - 0;
#X text 337 551 accel.x;
#X text 426 550 accel.y;
#X text 516 549 accel.z;
#X text 344 511 send midi CCs for gyro + accel;
#X obj 318 183 s setAllTrigs;
#X obj 318 116 bng 19 250 50 0 empty empty empty 0 -10 0 12 #fcfcfc #000000 #000000;
#X obj 837 555 r setAllTrigs;
#X obj 318 81 loadbang;
#X obj 566 889 gyroCC 0.25 75 26;
#X obj 682 856 tgl 19 0 empty empty empty 0 -10 0 12 #fcfcfc #000000 #000000 0 1;
#X obj 1087 91 gyroCC 0.25 75 26 1, f 29;
#X text 1086 136 Outlet: Sent Value;
#X obj 810 652 bng 19 250 50 0 empty empty empty 0 -10 0 12 #fcfcfc #000000 #000000;
#X text 1083 249 Outlets: Touch Release;
#X text 1084 356 Outlets: Touch;
#X floatatom 566 919 5 0 0 0 - - - 0;
#X obj 503 716 tgl 19 0 empty empty empty 0 -10 0 12 #fcfcfc #000000 #000000 0 1;
#X floatatom 387 779 5 0 0 0 - - - 0;
#X obj 593 786 tgl 19 0 empty empty empty 0 -10 0 12 #fcfcfc #000000 #000000 0 1;
#X floatatom 476 849 5 0 0 0 - - - 0;
#X obj 387 749 gyroCC 0.25 75 24;
#X obj 476 819 gyroCC 0.25 75 25;
#X obj 413 856 tgl 19 0 empty empty empty 0 -10 0 12 #fcfcfc #000000 #000000 0 1;
#X floatatom 298 919 5 0 0 0 - - - 0;
#X obj 234 716 tgl 19 0 empty empty empty 0 -10 0 12 #fcfcfc #000000 #000000 0 1;
#X floatatom 119 779 5 0 0 0 - - - 0;
#X obj 324 786 tgl 19 0 empty empty empty 0 -10 0 12 #fcfcfc #000000 #000000 0 1;
#X floatatom 208 849 5 0 0 0 - - - 0;
#X obj 119 749 gyroCC 0.33 75 21;
#X obj 208 819 gyroCC 0.33 75 22;
#X obj 298 889 gyroCC 0.33 75 23;
#X text 1300 89 normalizes and sends gyro sensor values as CC;
#X text 1300 312 Triggers a note of set duration from touch;
#X text 1298 204 Holds note during touch \, ends on release;
#X obj 1120 587 r touchDeviceId;
#X obj 1066 556 r setAllTrigs;
#X obj 1039 652 bng 19 250 50 0 empty empty empty 0 -10 0 12 #fcfcfc #000000 #000000;
#X obj 1120 651 bng 19 250 50 0 empty empty empty 0 -10 0 12 #fcfcfc #000000 #000000;
#X obj 1039 525 r touch1;
#X text 25 901 the CC addresses were chosen from less assigned range, f 29;
#X obj 810 619 touchNote 60 120;
#X obj 1087 317 touchNote 60 120, f 28;
#X obj 1087 206 holdNote 60, f 28;
#X obj 1039 619 holdNote 63, f 12;
#X obj 1320 587 r touchDeviceId;
#X obj 1266 556 r setAllTrigs;
#X obj 1239 652 bng 19 250 50 0 empty empty empty 0 -10 0 12 #fcfcfc #000000 #000000;
#X obj 1320 651 bng 19 250 50 0 empty empty empty 0 -10 0 12 #fcfcfc #000000 #000000;
#X obj 1520 587 r touchDeviceId;
#X obj 1466 556 r setAllTrigs;
#X obj 1439 652 bng 19 250 50 0 empty empty empty 0 -10 0 12 #fcfcfc #000000 #000000;
#X obj 1520 651 bng 19 250 50 0 empty empty empty 0 -10 0 12 #fcfcfc #000000 #000000;
#X obj 919 767 r touchDeviceId;
#X obj 837 735 r setAllTrigs;
#X obj 810 832 bng 19 250 50 0 empty empty empty 0 -10 0 12 #fcfcfc #000000 #000000;
#X obj 1120 767 r touchDeviceId;
#X obj 1066 736 r setAllTrigs;
#X obj 1039 832 bng 19 250 50 0 empty empty empty 0 -10 0 12 #fcfcfc #000000 #000000;
#X obj 1120 831 bng 19 250 50 0 empty empty empty 0 -10 0 12 #fcfcfc #000000 #000000;
#X obj 1320 767 r touchDeviceId;
#X obj 1266 736 r setAllTrigs;
#X obj 1239 832 bng 19 250 50 0 empty empty empty 0 -10 0 12 #fcfcfc #000000 #000000;
#X obj 1320 831 bng 19 250 50 0 empty empty empty 0 -10 0 12 #fcfcfc #000000 #000000;
#X obj 1520 767 r touchDeviceId;
#X obj 1466 736 r setAllTrigs;
#X obj 1439 832 bng 19 250 50 0 empty empty empty 0 -10 0 12 #fcfcfc #000000 #000000;
#X obj 1520 831 bng 19 250 50 0 empty empty empty 0 -10 0 12 #fcfcfc #000000 #000000;
#X obj 810 705 r touch4;
#X obj 1039 705 r touch5;
#X obj 1239 705 r touch6;
#X obj 1439 705 r touch7;
#X obj 1439 525 r touch3;
#X obj 1239 525 r touch2;
#X obj 1239 619 holdNote 67, f 12;
#X obj 1439 619 holdNote 69, f 12;
#X obj 810 799 touchNote 48 120;
#X obj 1039 799 holdNote 51, f 12;
#X obj 1239 799 holdNote 55, f 12;
#X obj 1439 799 holdNote 59, f 12;
#X text 1084 228 Inlets: Value \, Trigger settings \, Note \, Channel;
#X text 1084 338 Inlets: Value \, Trigger settings \, Note duration \, Channel;
#X text 1086 116 Inlets: Value \, Exponent \, Slew(ms) \, CC \, Channel \, Activate;
#X msg 318 149 set 20 125 16 125;
#X obj 850 214 findRange;
#X obj 880 160 tgl 19 0 empty empty empty 0 -10 0 12 #fcfcfc #000000 #000000 0 1;
#X obj 910 186 bng 19 250 50 0 empty empty empty 0 -10 0 12 #fcfcfc #000000 #000000;
#X floatatom 850 250 5 0 0 0 - - - 0;
#X floatatom 910 250 5 0 0 0 - - - 0;
#X text 823 250 min;
#X text 948 250 max;
#X obj 824 43 r touch0;
#X obj 838 67 r touch1;
#X obj 870 114 r touch3;
#X obj 854 91 r touch2;
#X text 902 158 reset minimum;
#X text 933 185 reset range;
#X text 591 655 Use toggles to map to Ableton. Only activate one at a time while mapping and be careful not to select something important in Ableton before activating, f 20;
#X text 487 50 BE SURE TO ACTIVATE DSP;
#X text 835 273 find top and bottom limits of touch sensors., f 20;
#X obj 850 404 findRange;
#X obj 872 374 bng 19 250 50 0 empty empty empty 0 -10 0 12 #fcfcfc #000000 #000000;
#X floatatom 850 440 5 0 0 0 - - - 0;
#X floatatom 910 440 5 0 0 0 - - - 0;
#X obj 850 344 r touch0;
#X text 895 373 reset;
#X text 464 146 1st and 3rd argument are off and on values \, the other two are debounce to prevent double taps. see "threshold~" help for more details., f 29;
#X connect 0 0 1 0;
#X connect 1 0 3 0;
#X connect 2 0 0 0;
#X connect 3 0 4 0;
#X connect 4 0 9 0;
#X connect 4 0 5 0;
#X connect 5 0 28 0;
#X connect 6 0 18 0;
#X connect 7 0 0 0;
#X connect 8 0 19 0;
#X connect 9 0 40 0;
#X connect 10 0 84 4;
#X connect 11 0 20 0;
#X connect 12 0 21 0;
#X connect 13 0 22 0;
#X connect 14 0 23 0;
#X connect 15 0 24 0;
#X connect 16 0 25 0;
#X connect 17 0 26 0;
#X connect 27 0 84 0;
#X connect 28 0 29 0;
#X connect 28 1 6 0;
#X connect 28 2 8 0;
#X connect 28 3 11 0;
#X connect 28 4 12 0;
#X connect 28 5 13 0;
#X connect 28 6 14 0;
#X connect 28 7 15 0;
#X connect 28 8 16 0;
#X connect 28 9 17 0;
#X connect 29 0 31 0;
#X connect 32 0 72 4;
#X connect 32 0 64 4;
#X connect 32 0 65 4;
#X connect 32 0 52 4;
#X connect 32 0 74 4;
#X connect 32 0 73 4;
#X connect 34 0 72 0;
#X connect 36 0 73 0;
#X connect 37 0 74 0;
#X connect 40 0 32 0;
#X connect 40 1 34 0;
#X connect 40 2 36 0;
#X connect 40 3 37 0;
#X connect 40 4 41 0;
#X connect 40 5 42 0;
#X connect 40 6 43 0;
#X connect 41 0 64 0;
#X connect 42 0 65 0;
#X connect 43 0 52 0;
#X connect 49 0 126 0;
#X connect 49 0 7 0;
#X connect 50 0 84 1;
#X connect 51 0 49 0;
#X connect 52 0 59 0;
#X connect 53 0 52 5;
#X connect 60 0 64 5;
#X connect 62 0 65 5;
#X connect 64 0 61 0;
#X connect 65 0 63 0;
#X connect 66 0 74 5;
#X connect 68 0 72 5;
#X connect 70 0 73 5;
#X connect 72 0 69 0;
#X connect 73 0 71 0;
#X connect 74 0 67 0;
#X connect 78 0 87 3;
#X connect 79 0 87 1;
#X connect 82 0 87 0;
#X connect 84 0 56 0;
#X connect 87 0 80 0;
#X connect 87 1 81 0;
#X connect 88 0 117 3;
#X connect 89 0 117 1;
#X connect 92 0 118 3;
#X connect 93 0 118 1;
#X connect 96 0 119 4;
#X connect 97 0 119 1;
#X connect 99 0 120 3;
#X connect 100 0 120 1;
#X connect 103 0 121 3;
#X connect 104 0 121 1;
#X connect 107 0 122 3;
#X connect 108 0 122 1;
#X connect 111 0 119 0;
#X connect 112 0 120 0;
#X connect 113 0 121 0;
#X connect 114 0 122 0;
#X connect 115 0 118 0;
#X connect 116 0 117 0;
#X connect 117 0 90 0;
#X connect 117 1 91 0;
#X connect 118 0 94 0;
#X connect 118 1 95 0;
#X connect 119 0 98 0;
#X connect 120 0 101 0;
#X connect 120 1 102 0;
#X connect 121 0 105 0;
#X connect 121 1 106 0;
#X connect 122 0 109 0;
#X connect 122 1 110 0;
#X connect 126 0 48 0;
#X connect 127 0 130 0;
#X connect 127 1 131 0;
#X connect 128 0 127 1;
#X connect 129 0 127 2;
#X connect 134 0 127 0;
#X connect 135 0 127 0;
#X connect 136 0 127 0;
#X connect 137 0 127 0;
#X connect 143 0 145 0;
#X connect 143 1 146 0;
#X connect 144 0 143 2;
#X connect 147 0 143 0;
