#N canvas 173 44 1618 1097 12;
#X obj 30 161 netreceive -u -b;
#X obj 30 194 oscparse;
#X msg 127 112 listen 0;
#X obj 30 229 list trim;
#X obj 30 263 route esp;
#X obj 89 350 route touch;
#X floatatom 158 419 5 0 0 0 - - - 0;
#X msg 30 112 listen 8088;
#X floatatom 227 420 5 0 0 0 - - - 0;
#X obj 30 598 route motion;
#X obj 1113 517 r touchDeviceId;
#X floatatom 296 420 5 0 0 0 - - - 0;
#X floatatom 366 420 5 0 0 0 - - - 0;
#X obj 158 494 s touch0;
#X obj 227 495 s touch1;
#X obj 296 495 s touch2;
#X obj 366 495 s touch3;
#X obj 999 455 r touch0;
#X floatatom 89 417 5 0 0 0 - - - 0;
#X text 67 417 id;
#X obj 89 520 s touchDeviceId;
#X floatatom 357 745 5 0 0 0 - - - 0;
#X text 15 664 id;
#X floatatom 119 685 5 0 0 0 - - - 0;
#X text 74 663 gyro.x;
#X floatatom 208 683 5 0 0 0 - - - 0;
#X floatatom 298 683 5 0 0 0 - - - 0;
#X text 163 662 gyro.y;
#X text 255 661 gyro.z;
#X obj 30 640 unpack i f f f f f f, f 77;
#X floatatom 387 685 5 0 0 0 - - - 0;
#X floatatom 476 682 5 0 0 0 - - - 0;
#X floatatom 566 684 5 0 0 0 - - - 0;
#X text 337 661 accel.x;
#X text 426 660 accel.y;
#X text 516 659 accel.z;
#X text 344 621 send midi CCs for gyro + accel;
#X obj 215 313 s setAllTrigs;
#X obj 215 57 bng 19 250 50 0 empty empty empty 0 -10 0 12 #fcfcfc #000000 #000000;
#X obj 1026 485 r setAllTrigs;
#X obj 215 22 loadbang;
#X obj 566 999 gyroCC 0.25 75 26;
#X obj 682 966 tgl 19 0 empty empty empty 0 -10 0 12 #fcfcfc #000000 #000000 0 1;
#X obj 1047 71 gyroCC 0.25 75 26 1, f 29;
#X text 1046 116 Outlet: Sent Value;
#X obj 999 582 bng 19 250 50 0 empty empty empty 0 -10 0 12 #fcfcfc #000000 #000000;
#X text 1043 229 Outlets: Touch Release;
#X text 1044 336 Outlets: Touch;
#X floatatom 566 1029 5 0 0 0 - - - 0;
#X obj 503 826 tgl 19 0 empty empty empty 0 -10 0 12 #fcfcfc #000000 #000000 0 1;
#X floatatom 387 889 5 0 0 0 - - - 0;
#X obj 593 896 tgl 19 0 empty empty empty 0 -10 0 12 #fcfcfc #000000 #000000 0 1;
#X floatatom 476 959 5 0 0 0 - - - 0;
#X obj 387 859 gyroCC 0.25 75 24;
#X obj 476 929 gyroCC 0.25 75 25;
#X obj 413 966 tgl 19 0 empty empty empty 0 -10 0 12 #fcfcfc #000000 #000000 0 1;
#X floatatom 298 1029 5 0 0 0 - - - 0;
#X obj 235 826 tgl 19 0 empty empty empty 0 -10 0 12 #fcfcfc #000000 #000000 0 1;
#X floatatom 119 889 5 0 0 0 - - - 0;
#X obj 324 896 tgl 19 0 empty empty empty 0 -10 0 12 #fcfcfc #000000 #000000 0 1;
#X floatatom 208 959 5 0 0 0 - - - 0;
#X obj 119 859 gyroCC 0.33 75 21;
#X obj 208 929 gyroCC 0.33 75 22;
#X obj 298 999 gyroCC 0.33 75 23;
#X text 1260 69 normalizes and sends gyro sensor values as CC;
#X text 1260 292 Triggers a note of set duration from touch;
#X text 1258 184 Holds note during touch \, ends on release;
#X obj 1393 517 r touchDeviceId;
#X obj 1306 486 r setAllTrigs;
#X obj 1279 582 bng 19 250 50 0 empty empty empty 0 -10 0 12 #fcfcfc #000000 #000000;
#X obj 1360 581 bng 19 250 50 0 empty empty empty 0 -10 0 12 #fcfcfc #000000 #000000;
#X obj 1279 455 r touch1;
#X text 62 1004 the CC addresses were chosen from less assigned range, f 29;
#X obj 1047 297 touchNote 60 120, f 28;
#X obj 1047 186 holdNote 60, f 28;
#X obj 1279 549 holdNote 63, f 12;
#X obj 1113 837 r touchDeviceId;
#X obj 1026 806 r setAllTrigs;
#X obj 999 902 bng 19 250 50 0 empty empty empty 0 -10 0 12 #fcfcfc #000000 #000000;
#X obj 1080 901 bng 19 250 50 0 empty empty empty 0 -10 0 12 #fcfcfc #000000 #000000;
#X obj 1393 837 r touchDeviceId;
#X obj 1306 806 r setAllTrigs;
#X obj 1279 902 bng 19 250 50 0 empty empty empty 0 -10 0 12 #fcfcfc #000000 #000000;
#X obj 1360 901 bng 19 250 50 0 empty empty empty 0 -10 0 12 #fcfcfc #000000 #000000;
#X obj 1279 775 r touch3;
#X obj 999 775 r touch2;
#X obj 999 869 holdNote 67, f 12;
#X obj 1279 869 holdNote 69, f 12;
#X text 1044 208 Inlets: Value \, Trigger settings \, Note \, Channel;
#X text 1044 318 Inlets: Value \, Trigger settings \, Note duration \, Channel;
#X text 1046 96 Inlets: Value \, Exponent \, Slew(ms) \, CC \, Channel \, Activate;
#X msg 215 279 set 20 125 16 125;
#X obj 507 461 findRange;
#X obj 537 407 tgl 19 0 empty empty empty 0 -10 0 12 #fcfcfc #000000 #000000 0 1;
#X obj 567 433 bng 19 250 50 0 empty empty empty 0 -10 0 12 #fcfcfc #000000 #000000;
#X floatatom 507 497 5 0 0 0 - - - 0;
#X floatatom 567 497 5 0 0 0 - - - 0;
#X text 480 497 min;
#X text 605 497 max;
#X text 559 405 reset minimum;
#X text 590 432 reset range;
#X text 591 718 Use toggles to map to Ableton. Only activate one at a time while mapping and be careful not to select something important in Ableton before activating, f 20;
#X text 336 22 BE SURE TO ACTIVATE DSP;
#X text 487 520 find top and bottom limits of touch sensors., f 24;
#X obj 729 469 findRange;
#X obj 751 439 bng 19 250 50 0 empty empty empty 0 -10 0 12 #fcfcfc #000000 #000000;
#X floatatom 729 505 5 0 0 0 - - - 0;
#X floatatom 789 505 5 0 0 0 - - - 0;
#X obj 729 409 r touch0;
#X text 774 438 reset;
#X text 222 199 1st and 3rd argument are off and on values \, the other two are debounce to prevent double taps. see "threshold~" help for more details., f 29;
#X text 595 83 Floor tracker OSC from processing;
#X text 848 146 Outlets: Speed1 \, x1 \, y1 \, Speed2 \, x2 \, ..., f 15;
#X obj 585 110 bng 19 250 50 0 empty empty empty 0 -10 0 12 #fcfcfc #000000 #000000;
#X obj 834 110 bng 19 250 50 0 empty empty empty 0 -10 0 12 #fcfcfc #000000 #000000;
#N canvas 313 505 513 493 floorReceive 0;
#X obj 182 101 netreceive -u -b;
#X obj 182 134 oscparse;
#X msg 230 53 listen 0;
#X obj 182 169 list trim;
#X obj 20 253 unpack f f f, f 15;
#X floatatom 20 309 5 0 0 0 - - - 0;
#X msg 133 52 listen 13579;
#X obj 20 203 route tracker0;
#X obj 182 203 route tracker1;
#X floatatom 71 310 5 0 0 0 - - - 0;
#X floatatom 122 308 5 0 0 0 - - - 0;
#X obj 133 14 inlet;
#X obj 230 13 inlet;
#X obj 342 203 route tracker2;
#X obj 122 338 min 2;
#X obj 122 372 * 127;
#X obj 20 372 * 127;
#X obj 71 372 * 127;
#X obj 182 253 unpack f f f, f 15;
#X floatatom 182 309 5 0 0 0 - - - 0;
#X floatatom 233 310 5 0 0 0 - - - 0;
#X floatatom 284 308 5 0 0 0 - - - 0;
#X obj 284 338 min 2;
#X obj 284 372 * 127;
#X obj 182 372 * 127;
#X obj 233 372 * 127;
#X obj 342 253 unpack f f f, f 15;
#X floatatom 342 309 5 0 0 0 - - - 0;
#X floatatom 393 310 5 0 0 0 - - - 0;
#X floatatom 444 308 5 0 0 0 - - - 0;
#X obj 444 338 min 2;
#X obj 444 372 * 127;
#X obj 342 372 * 127;
#X obj 393 372 * 127;
#X obj 20 430 outlet;
#X obj 71 430 outlet;
#X obj 122 430 outlet;
#X obj 182 430 outlet;
#X obj 233 430 outlet;
#X obj 284 430 outlet;
#X obj 343 430 outlet;
#X obj 394 430 outlet;
#X obj 445 430 outlet;
#X text 24 452 speed;
#X text 90 452 x;
#X text 134 453 y;
#X text 184 452 speed;
#X text 250 452 x;
#X text 294 453 y;
#X text 344 452 speed;
#X text 410 452 x;
#X text 454 453 y;
#X text 91 13 start;
#X text 272 13 stop;
#X connect 0 0 1 0;
#X connect 1 0 3 0;
#X connect 2 0 0 0;
#X connect 3 0 7 0;
#X connect 3 0 8 0;
#X connect 3 0 13 0;
#X connect 4 0 5 0;
#X connect 4 1 9 0;
#X connect 4 2 10 0;
#X connect 5 0 16 0;
#X connect 6 0 0 0;
#X connect 7 0 4 0;
#X connect 8 0 18 0;
#X connect 9 0 17 0;
#X connect 10 0 14 0;
#X connect 11 0 6 0;
#X connect 12 0 2 0;
#X connect 13 0 26 0;
#X connect 14 0 15 0;
#X connect 15 0 34 0;
#X connect 16 0 35 0;
#X connect 17 0 36 0;
#X connect 18 0 19 0;
#X connect 18 1 20 0;
#X connect 18 2 21 0;
#X connect 19 0 24 0;
#X connect 20 0 25 0;
#X connect 21 0 22 0;
#X connect 22 0 23 0;
#X connect 23 0 37 0;
#X connect 24 0 38 0;
#X connect 25 0 39 0;
#X connect 26 0 27 0;
#X connect 26 1 28 0;
#X connect 26 2 29 0;
#X connect 27 0 32 0;
#X connect 28 0 33 0;
#X connect 29 0 30 0;
#X connect 30 0 31 0;
#X connect 31 0 40 0;
#X connect 32 0 41 0;
#X connect 33 0 42 0;
#X restore 585 146 pd floorReceive;
#X f 36;
#X floatatom 585 181 5 0 0 0 - - - 0;
#X floatatom 678 181 5 0 0 0 - - - 0;
#X floatatom 772 181 5 0 0 0 - - - 0;
#X obj 999 549 holdNote 60, f 12;
#X obj 1080 582 bng 19 250 50 0 empty empty empty 0 -10 0 12 #fcfcfc #000000 #000000;
#X obj 585 273 spigot;
#X obj 624 248 tgl 19 0 empty empty empty 0 -10 0 12 #fcfcfc #000000 #000000 0 1;
#X obj 585 308 ctlout 27 4;
#X text 607 110 start;
#X text 799 111 stop;
#X obj 678 273 spigot;
#X obj 717 248 tgl 19 0 empty empty empty 0 -10 0 12 #fcfcfc #000000 #000000 0 1;
#X obj 772 273 spigot;
#X obj 811 248 tgl 19 0 empty empty empty 0 -10 0 12 #fcfcfc #000000 #000000 0 1;
#X obj 678 308 ctlout 28 4;
#X obj 772 308 ctlout 29 4;
#X text 570 329 all on midi channel 4 \, but change if you like;
#X obj 1039 698 ctlout 30 1;
#X obj 1039 673 spigot;
#X obj 1078 648 tgl 19 0 empty empty empty 0 -10 0 12 #fcfcfc #000000 #000000 0 1;
#X obj 1319 698 ctlout 30 1;
#X obj 1319 673 spigot;
#X obj 1358 648 tgl 19 0 empty empty empty 0 -10 0 12 #fcfcfc #000000 #000000 0 1;
#X obj 1039 1018 ctlout 30 1;
#X obj 1039 993 spigot;
#X obj 1078 968 tgl 19 0 empty empty empty 0 -10 0 12 #fcfcfc #000000 #000000 0 1;
#X obj 1319 1018 ctlout 30 1;
#X obj 1319 993 spigot;
#X obj 1358 968 tgl 19 0 empty empty empty 0 -10 0 12 #fcfcfc #000000 #000000 0 1;
#X obj 31 18 bng 35 250 50 0 empty empty empty 0 -10 0 12 #fcfcfc #000000 #000000;
#X obj 31 62 s cc-all;
#X obj 89 381 unpack i f f f f, f 40;
#X obj 215 795 r cc-all;
#X obj 305 865 r cc-all;
#X obj 395 935 r cc-all;
#X obj 485 795 r cc-all;
#X obj 575 865 r cc-all;
#X obj 665 935 r cc-all;
#X obj 717 216 r cc-all;
#X obj 1195 615 r cc-all;
#X obj 1195 935 r cc-all;
#X floatatom 1039 610 5 0 0 0 - - - 0;
#X floatatom 1319 610 5 0 0 0 - - - 0;
#X floatatom 1039 930 5 0 0 0 - - - 0;
#X floatatom 1319 930 5 0 0 0 - - - 0;
#X connect 0 0 1 0;
#X connect 1 0 3 0;
#X connect 2 0 0 0;
#X connect 3 0 4 0;
#X connect 4 0 9 0;
#X connect 4 0 5 0;
#X connect 5 0 147 0;
#X connect 6 0 13 0;
#X connect 6 0 92 0;
#X connect 7 0 0 0;
#X connect 8 0 14 0;
#X connect 8 0 92 0;
#X connect 9 0 29 0;
#X connect 10 0 119 3;
#X connect 10 0 133 2;
#X connect 11 0 15 0;
#X connect 11 0 92 0;
#X connect 12 0 16 0;
#X connect 12 0 92 0;
#X connect 17 0 119 0;
#X connect 18 0 20 0;
#X connect 21 0 61 4;
#X connect 21 0 53 4;
#X connect 21 0 54 4;
#X connect 21 0 41 4;
#X connect 21 0 63 4;
#X connect 21 0 62 4;
#X connect 23 0 61 0;
#X connect 25 0 62 0;
#X connect 26 0 63 0;
#X connect 29 0 21 0;
#X connect 29 1 23 0;
#X connect 29 2 25 0;
#X connect 29 3 26 0;
#X connect 29 4 30 0;
#X connect 29 5 31 0;
#X connect 29 6 32 0;
#X connect 30 0 53 0;
#X connect 31 0 54 0;
#X connect 32 0 41 0;
#X connect 38 0 91 0;
#X connect 38 0 7 0;
#X connect 38 0 113 0;
#X connect 39 0 119 1;
#X connect 40 0 38 0;
#X connect 41 0 48 0;
#X connect 42 0 41 5;
#X connect 49 0 53 5;
#X connect 51 0 54 5;
#X connect 53 0 50 0;
#X connect 54 0 52 0;
#X connect 55 0 63 5;
#X connect 57 0 61 5;
#X connect 59 0 62 5;
#X connect 61 0 58 0;
#X connect 62 0 60 0;
#X connect 63 0 56 0;
#X connect 67 0 136 2;
#X connect 67 0 75 3;
#X connect 68 0 75 1;
#X connect 71 0 75 0;
#X connect 75 0 69 0;
#X connect 75 1 158 0;
#X connect 75 2 70 0;
#X connect 76 0 139 2;
#X connect 76 0 86 3;
#X connect 77 0 86 1;
#X connect 80 0 142 2;
#X connect 80 0 87 3;
#X connect 81 0 87 1;
#X connect 84 0 87 0;
#X connect 85 0 86 0;
#X connect 86 0 78 0;
#X connect 86 1 159 0;
#X connect 86 2 79 0;
#X connect 87 0 82 0;
#X connect 87 1 160 0;
#X connect 87 2 83 0;
#X connect 91 0 37 0;
#X connect 92 0 95 0;
#X connect 92 1 96 0;
#X connect 93 0 92 1;
#X connect 94 0 92 2;
#X connect 104 0 106 0;
#X connect 104 1 107 0;
#X connect 105 0 104 2;
#X connect 108 0 104 0;
#X connect 113 0 115 0;
#X connect 114 0 115 1;
#X connect 115 0 116 0;
#X connect 115 3 117 0;
#X connect 115 6 118 0;
#X connect 116 0 121 0;
#X connect 117 0 126 0;
#X connect 118 0 128 0;
#X connect 119 0 45 0;
#X connect 119 1 157 0;
#X connect 119 2 120 0;
#X connect 121 0 123 0;
#X connect 122 0 121 1;
#X connect 126 0 130 0;
#X connect 127 0 126 1;
#X connect 128 0 131 0;
#X connect 129 0 128 1;
#X connect 134 0 133 0;
#X connect 135 0 134 1;
#X connect 137 0 136 0;
#X connect 138 0 137 1;
#X connect 140 0 139 0;
#X connect 141 0 140 1;
#X connect 143 0 142 0;
#X connect 144 0 143 1;
#X connect 145 0 146 0;
#X connect 147 0 18 0;
#X connect 147 1 6 0;
#X connect 147 2 8 0;
#X connect 147 3 11 0;
#X connect 147 4 12 0;
#X connect 148 0 57 0;
#X connect 149 0 59 0;
#X connect 150 0 55 0;
#X connect 151 0 49 0;
#X connect 152 0 51 0;
#X connect 153 0 42 0;
#X connect 154 0 129 0;
#X connect 154 0 127 0;
#X connect 154 0 122 0;
#X connect 155 0 135 0;
#X connect 155 0 138 0;
#X connect 156 0 141 0;
#X connect 156 0 144 0;
#X connect 157 0 134 0;
#X connect 158 0 137 0;
#X connect 159 0 140 0;
#X connect 160 0 143 0;
