#N canvas 62 44 1206 1097 12;
#X obj 101 96 netreceive -u -b;
#X obj 101 129 oscparse;
#X msg 196 46 listen 0;
#X obj 101 164 list trim;
#X text 92 16 dont forget to turn on dsp !!!;
#X obj 101 203 route esp;
#X obj 38 264 print;
#X obj 948 292 route touch;
#X floatatom 948 399 5 0 0 0 - - - 0;
#X floatatom 1051 398 5 0 0 0 - - - 0;
#X text 933 366 id;
#X msg 101 46 listen 8088;
#X obj 948 344 unpack i f f, f 30;
#X floatatom 1154 396 5 0 0 0 - - - 0;
#X obj 101 278 route motion;
#X floatatom 102 720 5 0 0 0 - - - 0;
#X text 86 364 id;
#X floatatom 198 385 5 0 0 0 - - - 0;
#X text 145 363 gyro.x;
#X floatatom 286 383 5 0 0 0 - - - 0;
#X floatatom 378 383 5 0 0 0 - - - 0;
#X text 234 362 gyro.y;
#X text 326 361 gyro.z;
#X obj 101 340 unpack i f f f f f f, f 77;
#X floatatom 470 385 5 0 0 0 - - - 0;
#X floatatom 561 382 5 0 0 0 - - - 0;
#X floatatom 652 384 5 0 0 0 - - - 0;
#X text 408 361 accel.x;
#X text 497 360 accel.y;
#X text 587 359 accel.z;
#X obj 1052 794 noteout;
#X floatatom 1052 633 5 0 0 0 - - - 0;
#X floatatom 1176 634 5 0 0 0 - - - 0;
#X floatatom 973 631 5 0 0 0 - - - 0;
#X text 994 365 touch id;
#X text 1076 366 touch value;
#X msg 1051 535 26;
#X msg 1051 435 set \$1;
#X text 948 270 send out midi note for each touch;
#X obj 1052 602 makenote, f 18;
#X msg 1175 538 50;
#X obj 948 436 t b f b;
#X text 1205 537 note duration;
#X obj 639 409 abs;
#X obj 639 443 pow 0.25;
#X obj 639 476 / 2;
#X obj 639 511 * 127;
#X obj 639 544 min 127;
#X obj 369 409 abs;
#X obj 369 476 / 2;
#X obj 369 511 * 127;
#X obj 369 544 min 127;
#X obj 369 443 pow 0.33;
#X obj 549 409 abs;
#X obj 549 443 pow 0.25;
#X obj 549 476 / 2;
#X obj 549 511 * 127;
#X obj 549 544 min 127;
#X obj 279 409 abs;
#X obj 279 476 / 2;
#X obj 279 511 * 127;
#X obj 279 544 min 127;
#X obj 279 443 pow 0.33;
#X obj 459 409 abs;
#X obj 459 443 pow 0.25;
#X obj 459 476 / 2;
#X obj 459 511 * 127;
#X obj 459 544 min 127;
#X obj 189 409 abs;
#X obj 189 476 / 2;
#X obj 189 511 * 127;
#X obj 189 544 min 127;
#X obj 189 443 pow 0.33;
#X obj 189 797 ctlout 21 1;
#X obj 279 797 ctlout 22 1;
#X obj 369 797 ctlout 23 1;
#X obj 459 797 ctlout 24 1;
#X obj 549 797 ctlout 25 1;
#X obj 639 797 ctlout 26 1;
#X obj 729 797 ctlout 27 1;
#X obj 819 797 ctlout 28 1;
#X floatatom 645 631 10 0 0 0 - - - 0;
#X obj 639 597 line;
#X msg 651 570 250;
#X floatatom 559 631 10 0 0 0 - - - 0;
#X obj 549 597 line;
#X msg 561 570 250;
#X floatatom 469 631 10 0 0 0 - - - 0;
#X obj 459 597 line;
#X msg 471 570 250;
#X floatatom 379 631 10 0 0 0 - - - 0;
#X obj 369 597 line;
#X msg 381 570 250;
#X floatatom 289 631 10 0 0 0 - - - 0;
#X obj 279 597 line;
#X msg 291 570 250;
#X floatatom 199 631 10 0 0 0 - - - 0;
#X obj 189 597 line;
#X msg 201 570 250;
#X text 415 321 send midi CCs for gyro + touches;
#X text 705 387 lazy sigmoid-ish normalizing;
#X text 710 443 calm the excess;
#X text 673 476 result rarely over 2 in tests;
#X text 699 508 to MIDI CC range;
#X text 711 544 safety;
#X text 707 596 slew;
#X text 270 836 the CC addresses were chosen from less assigned ranged;
#X obj 640 705 spigot;
#X obj 694 679 tgl 19 0 empty empty empty 0 -10 0 12 #fcfcfc #000000 #000000 0 1;
#X obj 190 705 spigot;
#X obj 244 679 tgl 19 0 empty empty empty 0 -10 0 12 #fcfcfc #000000 #000000 0 1;
#X obj 280 705 spigot;
#X obj 334 679 tgl 19 0 empty empty empty 0 -10 0 12 #fcfcfc #000000 #000000 0 1;
#X obj 370 705 spigot;
#X obj 424 679 tgl 19 0 empty empty empty 0 -10 0 12 #fcfcfc #000000 #000000 0 1;
#X obj 460 705 spigot;
#X obj 513 679 tgl 19 0 empty empty empty 0 -10 0 12 #fcfcfc #000000 #000000 0 1;
#X obj 550 705 spigot;
#X obj 604 679 tgl 19 0 empty empty empty 0 -10 0 12 #fcfcfc #000000 #000000 0 1;
#X obj 820 705 spigot;
#X obj 874 679 tgl 19 0 empty empty empty 0 -10 0 12 #fcfcfc #000000 #000000 0 1;
#X obj 730 705 spigot;
#X obj 784 679 tgl 19 0 empty empty empty 0 -10 0 12 #fcfcfc #000000 #000000 0 1;
#X obj 1052 700 spigot;
#X obj 1106 674 tgl 19 0 empty empty empty 0 -10 0 12 #fcfcfc #000000 #000000 0 1;
#X text 826 724 Gonna need these Spigots do MIDI assigns in Ableton;
#X obj 834 576 * 2;
#X obj 1125 435 * 2;
#X obj 1017 493 spigot;
#X obj 1114 556 -;
#X msg 1114 534 127;
#X obj 1174 449 < 25;
#X obj 1052 570 + 48;
#X connect 0 0 1 0;
#X connect 1 0 3 0;
#X connect 2 0 0 0;
#X connect 3 0 5 0;
#X connect 5 0 7 0;
#X connect 5 0 14 0;
#X connect 7 0 12 0;
#X connect 8 0 41 0;
#X connect 9 0 37 0;
#X connect 9 0 126 0;
#X connect 11 0 0 0;
#X connect 12 0 8 0;
#X connect 12 1 9 0;
#X connect 12 2 13 0;
#X connect 13 0 127 0;
#X connect 13 0 131 0;
#X connect 14 0 23 0;
#X connect 15 0 73 2;
#X connect 15 0 74 2;
#X connect 15 0 75 2;
#X connect 15 0 76 2;
#X connect 15 0 77 2;
#X connect 15 0 78 2;
#X connect 15 0 79 2;
#X connect 15 0 80 2;
#X connect 23 0 15 0;
#X connect 23 1 17 0;
#X connect 23 1 68 0;
#X connect 23 2 19 0;
#X connect 23 2 58 0;
#X connect 23 3 20 0;
#X connect 23 3 48 0;
#X connect 23 4 24 0;
#X connect 23 4 63 0;
#X connect 23 5 25 0;
#X connect 23 5 53 0;
#X connect 23 6 26 0;
#X connect 23 6 43 0;
#X connect 31 0 123 0;
#X connect 32 0 30 1;
#X connect 33 0 30 2;
#X connect 36 0 132 0;
#X connect 37 0 36 0;
#X connect 39 0 31 0;
#X connect 39 1 32 0;
#X connect 40 0 39 2;
#X connect 41 0 128 0;
#X connect 41 0 129 0;
#X connect 41 0 130 0;
#X connect 41 1 33 0;
#X connect 41 2 40 0;
#X connect 43 0 44 0;
#X connect 44 0 45 0;
#X connect 45 0 46 0;
#X connect 46 0 47 0;
#X connect 47 0 83 0;
#X connect 47 0 82 0;
#X connect 48 0 52 0;
#X connect 49 0 50 0;
#X connect 50 0 51 0;
#X connect 51 0 91 0;
#X connect 52 0 49 0;
#X connect 53 0 54 0;
#X connect 54 0 55 0;
#X connect 55 0 56 0;
#X connect 56 0 57 0;
#X connect 57 0 85 0;
#X connect 58 0 62 0;
#X connect 59 0 60 0;
#X connect 60 0 61 0;
#X connect 61 0 94 0;
#X connect 62 0 59 0;
#X connect 63 0 64 0;
#X connect 64 0 65 0;
#X connect 65 0 66 0;
#X connect 66 0 67 0;
#X connect 67 0 88 0;
#X connect 68 0 72 0;
#X connect 69 0 70 0;
#X connect 70 0 71 0;
#X connect 71 0 97 0;
#X connect 72 0 69 0;
#X connect 82 0 81 0;
#X connect 82 0 107 0;
#X connect 83 0 82 1;
#X connect 85 0 84 0;
#X connect 85 0 117 0;
#X connect 86 0 85 1;
#X connect 88 0 87 0;
#X connect 88 0 115 0;
#X connect 89 0 88 1;
#X connect 91 0 90 0;
#X connect 91 0 113 0;
#X connect 92 0 91 1;
#X connect 94 0 93 0;
#X connect 94 0 111 0;
#X connect 95 0 94 1;
#X connect 97 0 96 0;
#X connect 97 0 109 0;
#X connect 98 0 97 1;
#X connect 107 0 78 0;
#X connect 108 0 107 1;
#X connect 109 0 73 0;
#X connect 110 0 109 1;
#X connect 111 0 74 0;
#X connect 112 0 111 1;
#X connect 113 0 75 0;
#X connect 114 0 113 1;
#X connect 115 0 76 0;
#X connect 116 0 115 1;
#X connect 117 0 77 0;
#X connect 118 0 117 1;
#X connect 119 0 80 0;
#X connect 120 0 119 1;
#X connect 121 0 79 0;
#X connect 122 0 121 1;
#X connect 123 0 30 0;
#X connect 124 0 123 1;
#X connect 126 0 121 0;
#X connect 127 0 119 0;
#X connect 127 0 129 1;
#X connect 128 0 36 0;
#X connect 129 0 39 1;
#X connect 130 0 129 0;
#X connect 131 0 128 1;
#X connect 132 0 39 0;
