#N canvas 0 38 1728 942 12;
#X obj 193 589 netreceive -u -b;
#X obj 194 622 oscparse;
#X msg 300 539 listen 0;
#X obj 193 657 list trim;
#X floatatom 1574 628 5 0 0 0 - - -, f 5;
#X floatatom 1640 626 5 0 0 0 - - -, f 5;
#X text 1544 629 id;
#X text 1690 625 x;
#X obj 1570 555 route piezo;
#X obj 1571 592 unpack i i;
#X floatatom 1107 608 5 0 0 0 - - -, f 5;
#X text 1077 612 id;
#X obj 1106 552 route piezo_onset;
#X obj 1107 634 bng 15 250 50 0 empty empty empty 17 7 0 10 #fcfcfc
#000000 #000000;
#X obj 256 268 pack s \$0;
#X obj 256 224 openpanel;
#X obj 255 194 bng 15 250 50 0 empty empty empty 17 7 0 10 #fcfcfc
#000000 #000000;
#X obj 256 336 soundfiler;
#N canvas 0 22 450 300 (subpatch) 0;
#X array one_shot_sample_left 285196 float 2 black black;
#X coords 0 1 285196 -1 200 140 1;
#X restore 256 -124 graph;
#N canvas 0 22 450 300 (subpatch) 0;
#X array one_shot_sample_right 285196 float 2 black black;
#X coords 0 1 285196 -1 200 140 1;
#X restore 253 31 graph;
#X obj 1467 1487 dac~ 1 2;
#X obj 1428 1431 *~;
#X obj 1518 1361 hsl 128 15 0 127 0 0 empty empty empty -2 -8 0 10
#fcfcfc #000000 #000000 8950 1;
#X obj 1516 1383 / 127;
#X msg 256 302 read -resize \$1 one_shot_sample_left one_shot_sample_right
;
#X obj 1107 665 tabplay~ one_shot_sample_left;
#X text 77 -188 first load some samples;
#X obj 690 268 pack s \$0;
#X obj 690 224 openpanel;
#X obj 689 194 bng 15 250 50 0 empty empty empty 17 7 0 10 #fcfcfc
#000000 #000000;
#X obj 690 336 soundfiler;
#N canvas 0 22 450 300 (subpatch) 0;
#X array toggle_sample_left 4e+06 float 2 black black;
#X coords 0 1 4e+06 -1 200 140 1;
#X restore 690 -124 graph;
#N canvas 0 22 450 300 (subpatch) 0;
#X array toggle_sample_right 4e+06 float 2 black black;
#X coords 0 1 4e+06 -1 200 140 1;
#X restore 687 31 graph;
#X msg 690 302 read -resize \$1 toggle_sample_left toggle_sample_right
;
#X text 691 -154 could be replaced with some generative patches;
#X text 73 406 and then connect the sound rendering engine;
#X obj 1470 1436 *~;
#X floatatom 1370 609 5 0 0 0 - - -, f 5;
#X text 1340 613 id;
#X obj 1370 582 unpack i;
#X obj 1370 635 bng 15 250 50 0 empty empty empty 17 7 0 10 #fcfcfc
#000000 #000000;
#X obj 1369 554 route piezo2_onset;
#X text 1421 81 dont forget to turn on dsp !!!;
#X obj 1107 581 unpack i f;
#X floatatom 1172 624 5 0 0 0 - - -, f 5;
#X floatatom 1769 603 5 0 0 0 - - -, f 5;
#X floatatom 1835 601 5 0 0 0 - - -, f 5;
#X text 1739 604 id;
#X obj 1765 530 route all;
#X obj 1766 567 unpack i i i;
#X obj 1822 722 sel 1;
#X obj 1808 752 bng 15 250 50 0 empty empty empty 17 7 0 10 #fcfcfc
#000000 #000000;
#X obj 1838 677 > 0;
#X obj 182 917 hsl 128 15 -10 10 0 0 empty empty empty -2 -8 0 10 #fcfcfc
#000000 #000000 0 1;
#X obj 187 775 route multisense;
#X obj 186 820 route accelerometer;
#X obj 182 892 route x;
#X obj 181 962 route y;
#X obj 181 1024 route z;
#X obj 181 986 hsl 128 15 -10 10 0 0 empty empty empty -2 -8 0 10 #fcfcfc
#000000 #000000 0 1;
#X obj 180 1048 hsl 128 15 -10 10 0 0 empty empty empty -2 -8 0 10
#fcfcfc #000000 #000000 0 1;
#X obj 596 904 route x;
#X obj 600 832 route proximity;
#X obj 599 1003 tgl 15 0 empty empty empty 17 7 0 10 #fcfcfc #000000
#000000 0 1;
#X obj 608 957 < 5;
#X obj 369 932 hsl 128 15 -200 200 0 0 empty empty empty -2 -8 0 10
#fcfcfc #000000 #000000 0 1;
#X obj 368 1001 hsl 128 15 -200 200 0 0 empty empty empty -2 -8 0 10
#fcfcfc #000000 #000000 0 1;
#X obj 367 1063 hsl 128 15 -200 200 0 0 empty empty empty -2 -8 0 10
#fcfcfc #000000 #000000 0 1;
#X obj 373 835 route orientation;
#X obj 369 907 route yaw;
#X obj 368 977 route pitch;
#X obj 368 1039 route roll;
#X obj 781 773 route esp;
#X obj 913 773 print;
#X obj 1107 831 route touch;
#X floatatom 1106 909 5 0 0 0 - - -, f 5;
#X floatatom 1173 913 5 0 0 0 - - -, f 5;
#X text 1067 911 id;
#X text 1221 915 value;
#X obj 1048 1245 lop~;
#X floatatom 1070 1189 5 0 0 0 - - -, f 5;
#X obj 1115 1251 lop~;
#X obj 1071 1126 loadbang;
#X msg 1071 1155 300;
#X floatatom 115 932 5 0 0 0 - - -, f 5;
#X floatatom 110 1181 5 0 0 0 - - -, f 5;
#X obj 106 1131 expr $f1/10 * 2 -1;
#X obj 105 1222 expr if($f1 < 0 \, -$f1 \, $f1);
#X floatatom 103 1259 5 0 0 0 - - -, f 5;
#X obj 103 1287 expr 100 + $f1 * 1000;
#X msg 190 540 listen 8088;
#X obj 1106 882 unpack i f f;
#X floatatom 1311 914 5 0 0 0 - - -, f 5;
#X text 1359 916 value;
#X obj 1183 1089 tgl 15 0 empty empty empty 17 7 0 10 #fcfcfc #000000
#000000 0 1;
#X obj 1289 1196 tabplay~ toggle_sample_left;
#X obj 783 828 route motion;
#X floatatom 801 922 5 0 0 0 - - -, f 5;
#X text 762 924 id;
#X floatatom 888 953 5 0 0 0 - - -, f 5;
#X text 834 953 gyro.x;
#X floatatom 887 977 5 0 0 0 - - -, f 5;
#X floatatom 892 1004 5 0 0 0 - - -, f 5;
#X text 833 977 gyro.y;
#X text 838 1004 gyro.z;
#X obj 801 895 unpack i f f f f f f;
#X floatatom 1009 951 5 0 0 0 - - -, f 5;
#X floatatom 1008 975 5 0 0 0 - - -, f 5;
#X floatatom 1013 1002 5 0 0 0 - - -, f 5;
#X text 955 951 accel.x;
#X text 954 975 accel.y;
#X text 959 1002 accel.z;
#X floatatom 864 1141 5 0 0 0 - - -, f 5;
#X obj 981 1102 osc~ 5;
#X obj 1177 1065 change;
#X obj 1183 1111 moses 1;
#X obj 1179 1142 bng 15 250 50 0 empty empty empty 17 7 0 10 #fcfcfc
#000000 #000000;
#X msg 1177 1162 stop;
#X obj 1226 1134 bng 15 250 50 0 empty empty empty 17 7 0 10 #fcfcfc
#000000 #000000;
#X obj 1192 1005 < 50;
#X connect 0 0 1 0;
#X connect 1 0 3 0;
#X connect 2 0 0 0;
#X connect 3 0 54 0;
#X connect 3 0 72 0;
#X connect 8 0 9 0;
#X connect 9 0 4 0;
#X connect 9 1 5 0;
#X connect 10 0 13 0;
#X connect 12 0 43 0;
#X connect 13 0 25 0;
#X connect 14 0 24 0;
#X connect 15 0 14 0;
#X connect 16 0 15 0;
#X connect 21 0 20 0;
#X connect 22 0 23 0;
#X connect 23 0 36 1;
#X connect 23 0 21 1;
#X connect 24 0 17 0;
#X connect 27 0 33 0;
#X connect 28 0 27 0;
#X connect 29 0 28 0;
#X connect 33 0 30 0;
#X connect 36 0 20 1;
#X connect 37 0 40 0;
#X connect 39 0 37 0;
#X connect 41 0 39 0;
#X connect 43 0 10 0;
#X connect 43 1 44 0;
#X connect 46 0 52 0;
#X connect 48 0 49 0;
#X connect 49 0 45 0;
#X connect 49 1 46 0;
#X connect 50 0 51 0;
#X connect 52 0 50 0;
#X connect 54 0 55 0;
#X connect 54 0 62 0;
#X connect 54 0 68 0;
#X connect 55 0 56 0;
#X connect 55 0 57 0;
#X connect 55 0 58 0;
#X connect 56 0 53 0;
#X connect 56 0 84 0;
#X connect 57 0 59 0;
#X connect 58 0 60 0;
#X connect 61 0 64 0;
#X connect 62 0 61 0;
#X connect 64 0 63 0;
#X connect 68 0 69 0;
#X connect 68 0 70 0;
#X connect 68 0 71 0;
#X connect 69 0 65 0;
#X connect 70 0 66 0;
#X connect 71 0 67 0;
#X connect 72 0 73 0;
#X connect 72 0 74 0;
#X connect 72 0 96 0;
#X connect 74 0 91 0;
#X connect 76 0 119 0;
#X connect 79 0 21 0;
#X connect 80 0 79 1;
#X connect 80 0 81 1;
#X connect 81 0 36 0;
#X connect 82 0 83 0;
#X connect 83 0 80 0;
#X connect 84 0 86 0;
#X connect 85 0 87 0;
#X connect 86 0 85 0;
#X connect 87 0 88 0;
#X connect 88 0 89 0;
#X connect 89 0 80 0;
#X connect 90 0 0 0;
#X connect 91 0 75 0;
#X connect 91 1 76 0;
#X connect 91 2 92 0;
#X connect 94 0 115 0;
#X connect 95 0 79 0;
#X connect 95 0 81 0;
#X connect 96 0 105 0;
#X connect 105 0 97 0;
#X connect 105 1 99 0;
#X connect 105 2 101 0;
#X connect 105 3 102 0;
#X connect 105 4 106 0;
#X connect 105 5 107 0;
#X connect 105 6 108 0;
#X connect 112 0 80 0;
#X connect 113 0 79 0;
#X connect 113 0 81 0;
#X connect 114 0 94 0;
#X connect 115 0 116 0;
#X connect 115 1 118 0;
#X connect 116 0 117 0;
#X connect 117 0 95 0;
#X connect 118 0 95 0;
#X connect 119 0 114 0;
