#N canvas -32 38 1760 971 12;
#X obj 146 81 netreceive -u -b;
#X obj 147 114 oscparse;
#X msg 253 31 listen 0;
#X obj 146 149 list trim;
#X obj 143 243 route esp;
#X obj 541 302 route touch;
#X floatatom 587 438 5 0 0 0 - - -, f 5;
#X msg 143 32 listen 8088;
#X floatatom 652 437 5 0 0 0 - - -, f 5;
#X obj 457 703 tgl 15 0 empty empty empty 17 7 0 10 #fcfcfc #000000
#000000 1 1;
#X obj 145 298 route motion;
#X floatatom 144 393 5 0 0 0 - - -, f 5;
#X text 105 395 id;
#X floatatom 231 424 5 0 0 0 - - -, f 5;
#X text 177 424 gyro.x;
#X floatatom 230 448 5 0 0 0 - - -, f 5;
#X floatatom 235 475 5 0 0 0 - - -, f 5;
#X text 176 448 gyro.y;
#X text 181 475 gyro.z;
#X obj 144 366 unpack i f f f f f f;
#X floatatom 352 422 5 0 0 0 - - -, f 5;
#X floatatom 351 446 5 0 0 0 - - -, f 5;
#X floatatom 356 473 5 0 0 0 - - -, f 5;
#X text 298 422 accel.x;
#X text 297 446 accel.y;
#X text 302 473 accel.z;
#X obj 457 679 change;
#X obj 457 725 moses 1;
#X obj 453 756 bng 15 250 50 0 empty empty empty 17 7 0 10 #fcfcfc
#000000 #000000;
#X obj 500 748 bng 15 250 50 0 empty empty empty 17 7 0 10 #fcfcfc
#000000 #000000;
#X obj 499 939 noteout;
#X floatatom 500 882 5 0 0 0 - - -, f 5;
#X floatatom 539 882 5 0 0 0 - - -, f 5;
#X floatatom 579 882 5 0 0 0 - - -, f 5;
#X obj 500 840 makenote;
#X text 619 770 note duration;
#X obj 459 644 < 24;
#X text 625 884 note \, velocity \, duration;
#X obj 579 851 r touchDeviceId;
#X msg 618 798 20;
#X msg 500 799 60;
#X floatatom 721 442 5 0 0 0 - - -, f 5;
#X floatatom 777 439 5 0 0 0 - - -, f 5;
#X floatatom 848 433 5 0 0 0 - - -, f 5;
#X floatatom 908 434 5 0 0 0 - - -, f 5;
#X floatatom 981 434 5 0 0 0 - - -, f 5;
#X floatatom 1046 435 5 0 0 0 - - -, f 5;
#X floatatom 1110 434 5 0 0 0 - - -, f 5;
#X obj 588 466 s touch0;
#X obj 653 466 s touch1;
#X obj 721 469 s touch2;
#X obj 778 467 s touch3;
#X obj 848 464 s touch4;
#X obj 907 460 s touch5;
#X obj 983 460 s touch6;
#X obj 1050 461 s touch7;
#X obj 1118 462 s touch8;
#X obj 530 598 r touchThreshold;
#X floatatom 1232 80 5 0 0 0 - - -, f 5;
#X obj 1233 106 s touchThreshold;
#X obj 546 775 r touch0;
#X obj 459 599 r touch0;
#X obj 539 191 list split 1;
#X obj 545 245 list trim;
#X obj 1232 19 loadbang;
#X msg 1232 50 24;
#X obj 540 353 unpack i f f f f f f f f f;
#X floatatom 494 396 5 0 0 0 - - -, f 5;
#X text 456 398 id;
#X obj 448 448 s touchDeviceId;
#X floatatom 542 802 5 0 0 0 - - -, f 5;
#X obj 875 700 tgl 15 0 empty empty empty 17 7 0 10 #fcfcfc #000000
#000000 0 1;
#X obj 875 676 change;
#X obj 875 722 moses 1;
#X obj 871 753 bng 15 250 50 0 empty empty empty 17 7 0 10 #fcfcfc
#000000 #000000;
#X obj 918 745 bng 15 250 50 0 empty empty empty 17 7 0 10 #fcfcfc
#000000 #000000;
#X obj 917 936 noteout;
#X floatatom 918 879 5 0 0 0 - - -, f 5;
#X floatatom 957 879 5 0 0 0 - - -, f 5;
#X floatatom 997 879 5 0 0 0 - - -, f 5;
#X obj 918 837 makenote;
#X text 1037 767 note duration;
#X obj 877 641 < 24;
#X text 1043 881 note \, velocity \, duration;
#X obj 997 848 r touchDeviceId;
#X msg 1036 795 20;
#X obj 948 595 r touchThreshold;
#X floatatom 960 799 5 0 0 0 - - -, f 5;
#X obj 877 596 r touch1;
#X obj 964 772 r touch1;
#X msg 918 796 61;
#X obj 1221 690 tgl 15 0 empty empty empty 17 7 0 10 #fcfcfc #000000
#000000 0 1;
#X obj 1221 666 change;
#X obj 1221 712 moses 1;
#X obj 1217 743 bng 15 250 50 0 empty empty empty 17 7 0 10 #fcfcfc
#000000 #000000;
#X obj 1264 735 bng 15 250 50 0 empty empty empty 17 7 0 10 #fcfcfc
#000000 #000000;
#X obj 1263 926 noteout;
#X floatatom 1264 869 5 0 0 0 - - -, f 5;
#X floatatom 1303 869 5 0 0 0 - - -, f 5;
#X floatatom 1343 869 5 0 0 0 - - -, f 5;
#X obj 1264 827 makenote;
#X text 1383 757 note duration;
#X obj 1223 631 < 24;
#X text 1389 871 note \, velocity \, duration;
#X obj 1343 838 r touchDeviceId;
#X msg 1382 785 20;
#X obj 1294 585 r touchThreshold;
#X floatatom 1306 789 5 0 0 0 - - -, f 5;
#X msg 1264 786 62;
#X obj 1310 762 r touch2;
#X obj 1223 586 r touch2;
#X obj 1549 693 tgl 15 0 empty empty empty 17 7 0 10 #fcfcfc #000000
#000000 0 1;
#X obj 1549 669 change;
#X obj 1549 715 moses 1;
#X obj 1545 746 bng 15 250 50 0 empty empty empty 17 7 0 10 #fcfcfc
#000000 #000000;
#X obj 1592 738 bng 15 250 50 0 empty empty empty 17 7 0 10 #fcfcfc
#000000 #000000;
#X obj 1591 929 noteout;
#X floatatom 1592 872 5 0 0 0 - - -, f 5;
#X floatatom 1631 872 5 0 0 0 - - -, f 5;
#X floatatom 1671 872 5 0 0 0 - - -, f 5;
#X obj 1592 830 makenote;
#X text 1711 760 note duration;
#X obj 1551 634 < 24;
#X text 1717 874 note \, velocity \, duration;
#X obj 1671 841 r touchDeviceId;
#X msg 1710 788 20;
#X obj 1622 588 r touchThreshold;
#X floatatom 1634 792 5 0 0 0 - - -, f 5;
#X obj 1551 589 r touch3;
#X msg 1592 789 63;
#X obj 1910 698 tgl 15 0 empty empty empty 17 7 0 10 #fcfcfc #000000
#000000 0 1;
#X obj 1910 674 change;
#X obj 1910 720 moses 1;
#X obj 1906 751 bng 15 250 50 0 empty empty empty 17 7 0 10 #fcfcfc
#000000 #000000;
#X obj 1953 743 bng 15 250 50 0 empty empty empty 17 7 0 10 #fcfcfc
#000000 #000000;
#X obj 1952 934 noteout;
#X floatatom 1953 877 5 0 0 0 - - -, f 5;
#X floatatom 1992 877 5 0 0 0 - - -, f 5;
#X floatatom 2032 877 5 0 0 0 - - -, f 5;
#X obj 1953 835 makenote;
#X text 2072 765 note duration;
#X obj 1912 639 < 24;
#X text 2087 877 note \, velocity \, duration;
#X obj 2032 846 r touchDeviceId;
#X msg 2071 793 20;
#X obj 1983 593 r touchThreshold;
#X floatatom 1995 797 5 0 0 0 - - -, f 5;
#X obj 1912 594 r touch4;
#X msg 1953 794 64;
#X obj 1999 770 r touch4;
#X obj 1638 765 r touch3;
#X obj 2284 701 tgl 15 0 empty empty empty 17 7 0 10 #fcfcfc #000000
#000000 0 1;
#X obj 2284 677 change;
#X obj 2284 723 moses 1;
#X obj 2280 754 bng 15 250 50 0 empty empty empty 17 7 0 10 #fcfcfc
#000000 #000000;
#X obj 2327 746 bng 15 250 50 0 empty empty empty 17 7 0 10 #fcfcfc
#000000 #000000;
#X obj 2326 937 noteout;
#X floatatom 2327 880 5 0 0 0 - - -, f 5;
#X floatatom 2366 880 5 0 0 0 - - -, f 5;
#X floatatom 2406 880 5 0 0 0 - - -, f 5;
#X obj 2327 838 makenote;
#X text 2446 768 note duration;
#X obj 2286 642 < 24;
#X text 2452 882 note \, velocity \, duration;
#X obj 2406 849 r touchDeviceId;
#X msg 2445 796 20;
#X obj 2357 596 r touchThreshold;
#X floatatom 2369 800 5 0 0 0 - - -, f 5;
#X obj 2286 597 r touch5;
#X obj 2373 773 r touch5;
#X msg 2327 797 65;
#X obj 2600 700 tgl 15 0 empty empty empty 17 7 0 10 #fcfcfc #000000
#000000 0 1;
#X obj 2600 676 change;
#X obj 2600 722 moses 1;
#X obj 2596 753 bng 15 250 50 0 empty empty empty 17 7 0 10 #fcfcfc
#000000 #000000;
#X obj 2643 745 bng 15 250 50 0 empty empty empty 17 7 0 10 #fcfcfc
#000000 #000000;
#X obj 2642 936 noteout;
#X floatatom 2643 879 5 0 0 0 - - -, f 5;
#X floatatom 2682 879 5 0 0 0 - - -, f 5;
#X floatatom 2722 879 5 0 0 0 - - -, f 5;
#X obj 2643 837 makenote;
#X text 2762 767 note duration;
#X obj 2602 641 < 24;
#X text 2768 881 note \, velocity \, duration;
#X obj 2722 848 r touchDeviceId;
#X msg 2761 795 20;
#X obj 2673 595 r touchThreshold;
#X floatatom 2685 799 5 0 0 0 - - -, f 5;
#X obj 2602 596 r touch6;
#X obj 2689 772 r touch6;
#X msg 2643 796 66;
#X obj 2920 699 tgl 15 0 empty empty empty 17 7 0 10 #fcfcfc #000000
#000000 0 1;
#X obj 2920 675 change;
#X obj 2920 721 moses 1;
#X obj 2916 752 bng 15 250 50 0 empty empty empty 17 7 0 10 #fcfcfc
#000000 #000000;
#X obj 2963 744 bng 15 250 50 0 empty empty empty 17 7 0 10 #fcfcfc
#000000 #000000;
#X obj 2962 935 noteout;
#X floatatom 2963 878 5 0 0 0 - - -, f 5;
#X floatatom 3002 878 5 0 0 0 - - -, f 5;
#X floatatom 3042 878 5 0 0 0 - - -, f 5;
#X obj 2963 836 makenote;
#X text 3082 766 note duration;
#X obj 2922 640 < 24;
#X text 3088 880 note \, velocity \, duration;
#X obj 3042 847 r touchDeviceId;
#X msg 3081 794 20;
#X obj 2993 594 r touchThreshold;
#X floatatom 3005 798 5 0 0 0 - - -, f 5;
#X text 2772 881;
#X obj 2922 595 r touch7;
#X obj 3009 771 r touch7;
#X msg 2963 795 67;
#X obj 3261 696 tgl 15 0 empty empty empty 17 7 0 10 #fcfcfc #000000
#000000 0 1;
#X obj 3261 672 change;
#X obj 3261 718 moses 1;
#X obj 3257 749 bng 15 250 50 0 empty empty empty 17 7 0 10 #fcfcfc
#000000 #000000;
#X obj 3304 741 bng 15 250 50 0 empty empty empty 17 7 0 10 #fcfcfc
#000000 #000000;
#X obj 3303 932 noteout;
#X floatatom 3304 875 5 0 0 0 - - -, f 5;
#X floatatom 3343 875 5 0 0 0 - - -, f 5;
#X floatatom 3383 875 5 0 0 0 - - -, f 5;
#X obj 3304 833 makenote;
#X text 3423 763 note duration;
#X obj 3263 637 < 24;
#X text 3429 877 note \, velocity \, duration;
#X obj 3383 844 r touchDeviceId;
#X msg 3422 791 20;
#X obj 3334 591 r touchThreshold;
#X floatatom 3346 795 5 0 0 0 - - -, f 5;
#X obj 3263 592 r touch8;
#X obj 3350 768 r touch8;
#X msg 3304 792 68;
#X connect 0 0 1 0;
#X connect 1 0 3 0;
#X connect 2 0 0 0;
#X connect 3 0 4 0;
#X connect 4 0 10 0;
#X connect 4 0 5 0;
#X connect 5 0 66 0;
#X connect 6 0 48 0;
#X connect 7 0 0 0;
#X connect 8 0 49 0;
#X connect 9 0 27 0;
#X connect 10 0 19 0;
#X connect 19 0 11 0;
#X connect 19 1 13 0;
#X connect 19 2 15 0;
#X connect 19 3 16 0;
#X connect 19 4 20 0;
#X connect 19 5 21 0;
#X connect 19 6 22 0;
#X connect 26 0 9 0;
#X connect 27 0 28 0;
#X connect 27 1 29 0;
#X connect 29 0 40 0;
#X connect 31 0 30 0;
#X connect 32 0 30 1;
#X connect 33 0 30 2;
#X connect 34 0 31 0;
#X connect 34 1 32 0;
#X connect 36 0 26 0;
#X connect 38 0 33 0;
#X connect 39 0 34 2;
#X connect 40 0 34 0;
#X connect 41 0 50 0;
#X connect 42 0 51 0;
#X connect 43 0 52 0;
#X connect 44 0 53 0;
#X connect 45 0 54 0;
#X connect 46 0 55 0;
#X connect 47 0 56 0;
#X connect 57 0 36 1;
#X connect 58 0 59 0;
#X connect 60 0 70 0;
#X connect 61 0 36 0;
#X connect 62 1 63 0;
#X connect 64 0 65 0;
#X connect 65 0 58 0;
#X connect 66 0 67 0;
#X connect 66 1 6 0;
#X connect 66 2 8 0;
#X connect 66 3 41 0;
#X connect 66 4 42 0;
#X connect 66 5 43 0;
#X connect 66 6 44 0;
#X connect 66 7 45 0;
#X connect 66 8 46 0;
#X connect 66 9 47 0;
#X connect 67 0 69 0;
#X connect 70 0 34 1;
#X connect 71 0 73 0;
#X connect 72 0 71 0;
#X connect 73 0 74 0;
#X connect 73 1 75 0;
#X connect 75 0 90 0;
#X connect 77 0 76 0;
#X connect 78 0 76 1;
#X connect 79 0 76 2;
#X connect 80 0 77 0;
#X connect 80 1 78 0;
#X connect 82 0 72 0;
#X connect 84 0 79 0;
#X connect 85 0 80 2;
#X connect 86 0 82 1;
#X connect 87 0 80 1;
#X connect 88 0 82 0;
#X connect 89 0 87 0;
#X connect 90 0 80 0;
#X connect 91 0 93 0;
#X connect 92 0 91 0;
#X connect 93 0 94 0;
#X connect 93 1 95 0;
#X connect 95 0 108 0;
#X connect 97 0 96 0;
#X connect 98 0 96 1;
#X connect 99 0 96 2;
#X connect 100 0 97 0;
#X connect 100 1 98 0;
#X connect 102 0 92 0;
#X connect 104 0 99 0;
#X connect 105 0 100 2;
#X connect 106 0 102 1;
#X connect 107 0 100 1;
#X connect 108 0 100 0;
#X connect 109 0 107 0;
#X connect 110 0 102 0;
#X connect 111 0 113 0;
#X connect 112 0 111 0;
#X connect 113 0 114 0;
#X connect 113 1 115 0;
#X connect 115 0 129 0;
#X connect 117 0 116 0;
#X connect 118 0 116 1;
#X connect 119 0 116 2;
#X connect 120 0 117 0;
#X connect 120 1 118 0;
#X connect 122 0 112 0;
#X connect 124 0 119 0;
#X connect 125 0 120 2;
#X connect 126 0 122 1;
#X connect 127 0 120 1;
#X connect 128 0 122 0;
#X connect 129 0 120 0;
#X connect 130 0 132 0;
#X connect 131 0 130 0;
#X connect 132 0 133 0;
#X connect 132 1 134 0;
#X connect 134 0 148 0;
#X connect 136 0 135 0;
#X connect 137 0 135 1;
#X connect 138 0 135 2;
#X connect 139 0 136 0;
#X connect 139 1 137 0;
#X connect 141 0 131 0;
#X connect 143 0 138 0;
#X connect 144 0 139 2;
#X connect 145 0 141 1;
#X connect 146 0 139 1;
#X connect 147 0 141 0;
#X connect 148 0 139 0;
#X connect 149 0 146 0;
#X connect 150 0 127 0;
#X connect 151 0 153 0;
#X connect 152 0 151 0;
#X connect 153 0 154 0;
#X connect 153 1 155 0;
#X connect 155 0 170 0;
#X connect 157 0 156 0;
#X connect 158 0 156 1;
#X connect 159 0 156 2;
#X connect 160 0 157 0;
#X connect 160 1 158 0;
#X connect 162 0 152 0;
#X connect 164 0 159 0;
#X connect 165 0 160 2;
#X connect 166 0 162 1;
#X connect 167 0 160 1;
#X connect 168 0 162 0;
#X connect 169 0 167 0;
#X connect 170 0 160 0;
#X connect 171 0 173 0;
#X connect 172 0 171 0;
#X connect 173 0 174 0;
#X connect 173 1 175 0;
#X connect 175 0 190 0;
#X connect 177 0 176 0;
#X connect 178 0 176 1;
#X connect 179 0 176 2;
#X connect 180 0 177 0;
#X connect 180 1 178 0;
#X connect 182 0 172 0;
#X connect 184 0 179 0;
#X connect 185 0 180 2;
#X connect 186 0 182 1;
#X connect 187 0 180 1;
#X connect 188 0 182 0;
#X connect 189 0 187 0;
#X connect 190 0 180 0;
#X connect 191 0 193 0;
#X connect 192 0 191 0;
#X connect 193 0 194 0;
#X connect 193 1 195 0;
#X connect 195 0 211 0;
#X connect 197 0 196 0;
#X connect 198 0 196 1;
#X connect 199 0 196 2;
#X connect 200 0 197 0;
#X connect 200 1 198 0;
#X connect 202 0 192 0;
#X connect 204 0 199 0;
#X connect 205 0 200 2;
#X connect 206 0 202 1;
#X connect 207 0 200 1;
#X connect 209 0 202 0;
#X connect 210 0 207 0;
#X connect 211 0 200 0;
#X connect 212 0 214 0;
#X connect 213 0 212 0;
#X connect 214 0 215 0;
#X connect 214 1 216 0;
#X connect 216 0 231 0;
#X connect 218 0 217 0;
#X connect 219 0 217 1;
#X connect 220 0 217 2;
#X connect 221 0 218 0;
#X connect 221 1 219 0;
#X connect 223 0 213 0;
#X connect 225 0 220 0;
#X connect 226 0 221 2;
#X connect 227 0 223 1;
#X connect 228 0 221 1;
#X connect 229 0 223 0;
#X connect 230 0 228 0;
#X connect 231 0 221 0;
