#N canvas 77 505 766 583 12;
#X obj 252 480 noteout, f 16;
#X floatatom 252 443 5 0 0 0 - - - 0;
#X floatatom 306 444 5 0 0 0 - - - 0;
#X floatatom 535 398 5 0 0 0 - - - 0;
#X obj 252 401 makenote, f 16;
#X text 416 40 note duration;
#X text 222 504 note \, velocity \, duration;
#X floatatom 306 363 5 0 0 0 - - - 0;
#X obj 304 281 min 127;
#X obj 304 311 max 0;
#X obj 304 251 expr 127-$f1;
#X obj 47 96 sig~;
#X obj 47 163 bng 19 250 50 0 empty empty empty 0 -10 0 12 #fcfcfc #000000 #000000;
#X obj 252 165 bng 19 250 50 0 empty empty empty 0 -10 0 12 #fcfcfc #000000 #000000;
#X obj 47 130 threshold~ 25 125 16 125;
#X obj 47 56 inlet;
#X obj 105 54 inlet;
#X text 46 37 value;
#X obj 291 59 inlet;
#X text 297 40 note;
#X floatatom 252 362 5 0 0 0 - - - 0;
#X obj 416 62 inlet;
#X floatatom 414 363 5 0 0 0 - - - 0;
#X obj 535 66 inlet;
#X text 540 90 Channel;
#X text 1310 550 This allows for debouncing to prevent multi-taps;
#X text 1320 560 This allows for debouncing to prevent multi-taps;
#X text 227 128 allows debouce to prevent multitaps;
#X text 45 188 can add release event;
#X obj 60 542 outlet;
#X obj 340 168 i \$1;
#X obj 430 167 i \$2;
#X obj 340 98 loadbang;
#X text 148 53 trigger settings;
#X connect 1 0 0 0;
#X connect 2 0 0 1;
#X connect 3 0 0 2;
#X connect 4 0 1 0;
#X connect 4 1 2 0;
#X connect 7 0 4 1;
#X connect 8 0 9 0;
#X connect 9 0 7 0;
#X connect 10 0 8 0;
#X connect 11 0 14 0;
#X connect 13 0 7 0;
#X connect 13 0 20 0;
#X connect 13 0 29 0;
#X connect 14 0 12 0;
#X connect 14 1 13 0;
#X connect 15 0 11 0;
#X connect 15 0 10 0;
#X connect 16 0 14 0;
#X connect 18 0 20 0;
#X connect 20 0 4 0;
#X connect 21 0 22 0;
#X connect 22 0 4 2;
#X connect 23 0 3 0;
#X connect 30 0 20 0;
#X connect 31 0 22 0;
#X connect 32 0 31 0;
#X connect 32 0 30 0;
